<svg xmlns="http://www.w3.org/2000/svg" width="24" height="16" viewBox="0 0 24 16">
  <path id="Path_32356" data-name="Path 32356" d="M84.708,120.193a.375.375,0,1,1-.75,0v-1.058a.375.375,0,1,1,.75,0Zm0-2.832a.375.375,0,1,1-.75,0v-1.054a.376.376,0,1,1,.75,0Zm0-2.832a.375.375,0,1,1-.75,0v-1.054a.376.376,0,1,1,.75,0Zm0-2.832a.375.375,0,1,1-.75,0v-1.054a.375.375,0,1,1,.75,0Zm8.6,8.361H86.943a.394.394,0,0,1,0-.787h6.367a.394.394,0,0,1,0,.787Zm4.765-4.357H86.943a.394.394,0,0,1,0-.787H98.075a.394.394,0,0,1,0,.787Zm0-4.357H86.943a.394.394,0,0,1,0-.787H98.075a.394.394,0,0,1,0,.787Zm4.074,1.447a.389.389,0,0,0,.334-.393v-4.586a.383.383,0,0,0-.375-.393h-17.4v1.447a.375.375,0,1,1-.75,0v-1.447h-5.1a.383.383,0,0,0-.375.393V112.4a.389.389,0,0,0,.334.393,2.661,2.661,0,0,1,0,5.255.385.385,0,0,0-.334.389v4.59a.386.386,0,0,0,.375.393h5.1v-1.192a.375.375,0,1,1,.75,0v1.192h17.4a.385.385,0,0,0,.375-.393v-4.59a.385.385,0,0,0-.334-.389,2.661,2.661,0,0,1,0-5.255Z" transform="translate(-78.483 -107.418)" fill="#c4af63"/>
</svg>
