<svg xmlns="http://www.w3.org/2000/svg" xmlns:xlink="http://www.w3.org/1999/xlink" width="295" height="140" viewBox="0 0 295 140">
  <defs>
    <linearGradient id="linear-gradient" x1="0.005" y1="0.5" x2="1.313" y2="0.5" gradientUnits="objectBoundingBox">
      <stop offset="0" stop-color="#42117b"/>
      <stop offset="0.236" stop-color="#272c84"/>
      <stop offset="0.379" stop-color="#0d468c"/>
      <stop offset="1" stop-color="#015390"/>
    </linearGradient>
    <clipPath id="clip-Artboard_12">
      <rect width="295" height="140"/>
    </clipPath>
  </defs>
  <g id="Artboard_12" data-name="Artboard – 12" clip-path="url(#clip-Artboard_12)">
    <path id="Subtraction_347" data-name="Subtraction 347" d="M10092,4713H9975a15,15,0,0,0-15-15v-11a8,8,0,0,0,0-16v-8a8,8,0,0,0,0-16v-8a8,8,0,0,0,0-16v-8a8,8,0,0,0,0-16v-11h.006a14.995,14.995,0,0,0,15-15h117a8,8,0,0,0,16,0h587a14.995,14.995,0,0,0,15,15v11a8,8,0,0,0,0,16v8a8,8,0,0,0,0,16v8a8,8,0,0,0,0,16v8a8,8,0,0,0,0,16v11a15,15,0,0,0-15,15l-587,0a8,8,0,1,0-16,0Z" transform="translate(-9980 -4573)" fill="url(#linear-gradient)"/>
  </g>
</svg>
