<svg xmlns="http://www.w3.org/2000/svg" xmlns:xlink="http://www.w3.org/1999/xlink" width="295" height="140" viewBox="0 0 295 140">
  <defs>
    <clipPath id="clip-Artboard_12">
      <rect width="295" height="140"/>
    </clipPath>
  </defs>
  <g id="Artboard_12" data-name="Artboard – 12" clip-path="url(#clip-Artboard_12)">
    <g id="Subtraction_347" data-name="Subtraction 347" transform="translate(-9980 -4573)" fill="#1d1c2c">
      <path d="M10092,4713H9975a15,15,0,0,0-15-15v-11a8,8,0,0,0,0-16v-8a8,8,0,0,0,0-16v-8a8,8,0,0,0,0-16v-8a8,8,0,0,0,0-16v-11h.006a14.995,14.995,0,0,0,15-15h117a8,8,0,0,0,16,0h587a14.995,14.995,0,0,0,15,15v11a8,8,0,0,0,0,16v8a8,8,0,0,0,0,16v8a8,8,0,0,0,0,16v8a8,8,0,0,0,0,16v11a15,15,0,0,0-15,15l-587,0a8,8,0,1,0-16,0Z" stroke="none"/>
      <path d="M 10091.0556640625 4712.00146484375 C 10091.5546875 4707.505859375 10095.375 4703.99853515625 10100 4703.99853515625 C 10102.4013671875 4703.99853515625 10104.6611328125 4704.93603515625 10106.3623046875 4706.6376953125 C 10107.8251953125 4708.1005859375 10108.7236328125 4709.97607421875 10108.947265625 4712.00048828125 L 10694.033203125 4711.99755859375 C 10694.2724609375 4708.0986328125 10695.9033203125 4704.46875 10698.6875 4701.68701171875 C 10701.470703125 4698.90380859375 10705.1015625 4697.271484375 10709.0009765625 4697.03076171875 L 10709.0009765625 4687.94580078125 C 10704.5078125 4687.44677734375 10701.001953125 4683.6259765625 10701.001953125 4679.001953125 C 10701.001953125 4674.37939453125 10704.5078125 4670.55712890625 10709.0009765625 4670.0556640625 L 10709.0009765625 4663.94580078125 C 10704.5078125 4663.44677734375 10701.001953125 4659.62451171875 10701.001953125 4654.9990234375 C 10701.001953125 4650.3759765625 10704.5078125 4646.55517578125 10709.0009765625 4646.05517578125 L 10709.0009765625 4639.943359375 C 10704.5078125 4639.4443359375 10701.001953125 4635.62353515625 10701.001953125 4630.99951171875 C 10701.001953125 4626.37646484375 10704.5078125 4622.5556640625 10709.0009765625 4622.0556640625 L 10709.0009765625 4615.943359375 C 10704.5078125 4615.4443359375 10701.001953125 4611.625 10701.001953125 4607.001953125 C 10701.001953125 4602.3759765625 10704.5078125 4598.55322265625 10709.0009765625 4598.05322265625 L 10709.0009765625 4588.96875 C 10705.1005859375 4588.72998046875 10701.4697265625 4587.0986328125 10698.6875 4584.314453125 C 10695.9033203125 4581.53271484375 10694.271484375 4577.90185546875 10694.033203125 4574.0009765625 L 10108.947265625 4574.0009765625 C 10108.447265625 4578.494140625 10104.6259765625 4582 10100 4582 C 10097.599609375 4582 10095.3408203125 4581.06298828125 10093.6396484375 4579.361328125 C 10092.177734375 4577.89990234375 10091.279296875 4576.0244140625 10091.0556640625 4574.0009765625 L 9975.970703125 4574.0009765625 C 9975.7314453125 4577.89892578125 9974.1005859375 4581.52978515625 9971.31640625 4584.314453125 C 9968.5283203125 4587.099609375 9964.896484375 4588.7314453125 9961 4588.96875 L 9961 4598.052734375 C 9965.4931640625 4598.55224609375 9968.9990234375 4602.375 9968.9990234375 4607.001953125 C 9968.9990234375 4611.62353515625 9965.4931640625 4615.443359375 9961 4615.943359375 L 9961 4622.0556640625 C 9965.4931640625 4622.5546875 9968.9990234375 4626.37548828125 9968.9990234375 4630.99951171875 C 9968.9990234375 4635.62255859375 9965.4931640625 4639.443359375 9961 4639.943359375 L 9961 4646.05517578125 C 9965.4931640625 4646.55419921875 9968.9990234375 4650.375 9968.9990234375 4654.9990234375 C 9968.9990234375 4659.6220703125 9965.4931640625 4663.44384765625 9961 4663.9453125 L 9961 4670.05517578125 C 9965.4931640625 4670.55419921875 9968.9990234375 4674.37646484375 9968.9990234375 4679.001953125 C 9968.9990234375 4683.625 9965.4931640625 4687.44580078125 9961 4687.94580078125 L 9961 4697.0302734375 C 9964.8955078125 4697.26904296875 9968.5283203125 4698.9013671875 9971.3173828125 4701.6875 C 9974.1005859375 4704.474609375 9975.7314453125 4708.10498046875 9975.970703125 4712.00048828125 L 10091.0556640625 4712.00146484375 M 10092.0009765625 4713.00146484375 L 9975.0009765625 4713.00048828125 C 9975.0009765625 4708.99560546875 9973.44140625 4705.2294921875 9970.609375 4702.39404296875 C 9967.7724609375 4699.56005859375 9964.0048828125 4697.99951171875 9960 4697.99951171875 L 9960 4687.0009765625 C 9964.412109375 4687 9967.9990234375 4683.412109375 9967.9990234375 4679.001953125 C 9967.9990234375 4674.58984375 9964.41015625 4671 9960 4671 L 9960 4663.0009765625 C 9964.4111328125 4662.998046875 9967.9990234375 4659.40869140625 9967.9990234375 4654.9990234375 C 9967.9990234375 4650.58837890625 9964.41015625 4647 9960 4647 L 9960 4638.99853515625 C 9964.412109375 4638.99755859375 9967.9990234375 4635.40966796875 9967.9990234375 4630.99951171875 C 9967.9990234375 4626.5888671875 9964.41015625 4623.00048828125 9960 4623.00048828125 L 9960 4614.99853515625 C 9964.412109375 4614.99755859375 9967.9990234375 4611.41064453125 9967.9990234375 4607.001953125 C 9967.9990234375 4602.58837890625 9964.41015625 4598.99755859375 9960 4598.99755859375 L 9960 4587.998046875 L 9960.005859375 4587.9990234375 C 9964.0087890625 4587.9990234375 9967.7744140625 4586.439453125 9970.609375 4583.60693359375 C 9973.44140625 4580.77490234375 9975.0009765625 4577.00830078125 9975.0009765625 4573.0009765625 L 10092.0009765625 4573.0009765625 C 10092.001953125 4575.134765625 10092.833984375 4577.14208984375 10094.3466796875 4578.654296875 C 10095.859375 4580.1669921875 10097.8671875 4581 10100 4581 C 10104.412109375 4581 10108.001953125 4577.41162109375 10108.001953125 4573.0009765625 L 10695.0029296875 4573.0009765625 C 10695.0029296875 4577.01123046875 10696.5625 4580.77783203125 10699.39453125 4583.60693359375 C 10702.224609375 4586.439453125 10705.9912109375 4587.9990234375 10710.0009765625 4587.9990234375 L 10710.0009765625 4598.99755859375 C 10705.5888671875 4598.99853515625 10702.001953125 4602.5888671875 10702.001953125 4607.001953125 C 10702.001953125 4611.4111328125 10705.5908203125 4614.99853515625 10710.0009765625 4614.99853515625 L 10710.0009765625 4623.00048828125 C 10705.5888671875 4623.00146484375 10702.001953125 4626.58935546875 10702.001953125 4630.99951171875 C 10702.001953125 4635.41015625 10705.5908203125 4638.99853515625 10710.0009765625 4638.99853515625 L 10710.0009765625 4647 C 10705.5888671875 4647.0009765625 10702.001953125 4650.5888671875 10702.001953125 4654.9990234375 C 10702.001953125 4659.4111328125 10705.5908203125 4663.0009765625 10710.0009765625 4663.0009765625 L 10710.0009765625 4671 C 10705.58984375 4671.0029296875 10702.001953125 4674.59228515625 10702.001953125 4679.001953125 C 10702.001953125 4683.41259765625 10705.5908203125 4687.0009765625 10710.0009765625 4687.0009765625 L 10710.0009765625 4697.99951171875 C 10705.9921875 4698.00244140625 10702.2255859375 4699.56298828125 10699.39453125 4702.39404296875 C 10696.5625 4705.2236328125 10695.0029296875 4708.9892578125 10695.0029296875 4712.99755859375 L 10108.001953125 4713.00048828125 C 10108.0009765625 4710.86572265625 10107.16796875 4708.857421875 10105.6552734375 4707.3447265625 C 10104.142578125 4705.83154296875 10102.1337890625 4704.99853515625 10100 4704.99853515625 C 10095.58984375 4704.99853515625 10092.0009765625 4708.58837890625 10092.0009765625 4713.00048828125 L 10092.0009765625 4713.00146484375 Z" stroke="none" fill="rgba(138,135,175,0.5)"/>
    </g>
  </g>
</svg>
