<svg xmlns="http://www.w3.org/2000/svg" width="44.606" height="24" viewBox="0 0 44.606 24">
  <g id="Race_flag" data-name="Race flag" transform="translate(-2.5 -24.486)">
    <path id="Path_10790" data-name="Path 10790" d="M62.095,45.5c-.358.805-.537,1.253-.895,2.058a8.439,8.439,0,0,0,2.058.895c.358-.805.537-1.253.895-2.058A8.439,8.439,0,0,1,62.095,45.5Z" transform="translate(-31.041 -11.078)" fill="#dfb749"/>
    <path id="Path_10791" data-name="Path 10791" d="M63.7,54.158a16.362,16.362,0,0,0,2.237.537c.358-.805.537-1.253.895-2.058a20.291,20.291,0,0,1-2.237-.537C64.282,52.95,64.058,53.353,63.7,54.158Z" transform="translate(-32.356 -14.57)" fill="#dfb749"/>
    <path id="Path_10792" data-name="Path 10792" d="M42.579,35.1l.895-2.16a6.889,6.889,0,0,0,1.655,1.409c.358-.845.537-1.315.895-2.16a6.889,6.889,0,0,1-1.655-1.409l.895-2.16a6.889,6.889,0,0,0,1.655,1.409c.358-.845.537-1.315.895-2.16a6.889,6.889,0,0,1-1.655-1.409l.4-.986a.755.755,0,0,0-.358-.939.692.692,0,0,0-.895.376l-6.084,14.7-6.219-14.7a.7.7,0,0,0-.895-.376.764.764,0,0,0-.358.939l.4.986A6.889,6.889,0,0,1,30.5,27.873c.358.845.537,1.315.895,2.16a6.889,6.889,0,0,0,1.655-1.409l.895,2.16a6.889,6.889,0,0,1-1.655,1.409c.358.845.537,1.315.895,2.16a6.889,6.889,0,0,0,1.655-1.409l.895,2.16a6.889,6.889,0,0,1-1.655,1.409c.358.845.537,1.315.895,2.16a6.889,6.889,0,0,0,1.655-1.409l1.7,4.085L35.734,47.5a.755.755,0,0,0,.358.939.544.544,0,0,0,.268.047.673.673,0,0,0,.626-.423l2.237-5.024,2.1,4.977a.633.633,0,0,0,.626.423.544.544,0,0,0,.268-.047.764.764,0,0,0,.358-.939L39.985,41.3l1.7-4.085a6.889,6.889,0,0,0,1.655,1.409c.358-.845.537-1.315.895-2.16A5.246,5.246,0,0,1,42.579,35.1Z" transform="translate(-14.427)" fill="#dfb749"/>
    <path id="Path_10793" data-name="Path 10793" d="M67.258,39.253c.358-.805.537-1.253.895-2.058a8.439,8.439,0,0,1-2.058-.895c-.358.805-.537,1.253-.895,2.058A9.259,9.259,0,0,0,67.258,39.253Z" transform="translate(-33.156 -6.228)" fill="#dfb749"/>
    <path id="Path_10794" data-name="Path 10794" d="M68.695,42.9c-.358.805-.537,1.253-.895,2.058a16.364,16.364,0,0,0,2.237.537c.358-.805.537-1.253.895-2.058A20.29,20.29,0,0,1,68.695,42.9Z" transform="translate(-34.524 -9.716)" fill="#dfb749"/>
    <path id="Path_10795" data-name="Path 10795" d="M71.695,48.8c-.358.805-.537,1.253-.895,2.058.895.179,1.387.268,2.282.447.358-.805.537-1.253.895-2.058C73.037,49.024,72.59,48.979,71.695,48.8Z" transform="translate(-36.108 -12.831)" fill="#dfb749"/>
    <path id="Path_10796" data-name="Path 10796" d="M73.8,56.358a20.29,20.29,0,0,1,2.237.537c.358-.805.537-1.253.895-2.058a16.363,16.363,0,0,0-2.237-.537C74.337,55.15,74.158,55.553,73.8,56.358Z" transform="translate(-37.696 -15.731)" fill="#dfb749"/>
    <path id="Path_10797" data-name="Path 10797" d="M75.032,34.337a20.29,20.29,0,0,1-2.237-.537c-.358.805-.537,1.253-.895,2.058a16.363,16.363,0,0,0,2.237.537A16.822,16.822,0,0,1,75.032,34.337Z" transform="translate(-36.692 -4.914)" fill="#dfb749"/>
    <path id="Path_10798" data-name="Path 10798" d="M77.082,42.005c.358-.805.537-1.253.895-2.058-.895-.179-1.387-.268-2.282-.447-.358.805-.537,1.253-.895,2.058C75.695,41.782,76.142,41.826,77.082,42.005Z" transform="translate(-38.223 -7.923)" fill="#dfb749"/>
    <path id="Path_10799" data-name="Path 10799" d="M77.8,47.158a20.291,20.291,0,0,1,2.237.537c.358-.805.537-1.253.895-2.058a16.363,16.363,0,0,0-2.237-.537C78.337,45.95,78.158,46.353,77.8,47.158Z" transform="translate(-39.507 -10.877)" fill="#dfb749"/>
    <path id="Path_10800" data-name="Path 10800" d="M80.7,53.058a8.439,8.439,0,0,1,2.058.895c.358-.805.537-1.253.895-2.058A8.439,8.439,0,0,0,81.595,51C81.282,51.805,81.1,52.208,80.7,53.058Z" transform="translate(-41.11 -13.978)" fill="#dfb749"/>
    <path id="Path_10801" data-name="Path 10801" d="M85.09,61.179c.358-.805.537-1.253.895-2.058a7.047,7.047,0,0,0-1.79-1.521c-.358.805-.537,1.253-.895,2.058A5.251,5.251,0,0,1,85.09,61.179Z" transform="translate(-42.547 -17.43)" fill="#dfb749"/>
    <path id="Path_10802" data-name="Path 10802" d="M85.032,36.537A16.364,16.364,0,0,0,82.795,36c-.358.805-.537,1.253-.895,2.058a20.29,20.29,0,0,1,2.237.537C84.495,37.745,84.674,37.342,85.032,36.537Z" transform="translate(-41.773 -6.075)" fill="#dfb749"/>
    <path id="Path_10803" data-name="Path 10803" d="M84.8,43.858a8.439,8.439,0,0,1,2.058.895c.358-.805.537-1.253.895-2.058a8.439,8.439,0,0,0-2.058-.895C85.337,42.605,85.158,43.008,84.8,43.858Z" transform="translate(-43.376 -9.128)" fill="#dfb749"/>
    <path id="Path_10804" data-name="Path 10804" d="M89.19,51.979c.358-.805.537-1.253.895-2.058a7.047,7.047,0,0,0-1.79-1.521c-.358.805-.537,1.253-.895,2.058A6.244,6.244,0,0,1,89.19,51.979Z" transform="translate(-44.812 -12.587)" fill="#dfb749"/>
    <path id="Path_10805" data-name="Path 10805" d="M92.395,39.2c-.358.805-.537,1.253-.895,2.058a5.7,5.7,0,0,1,1.79,1.521c.358-.805.537-1.253.895-2.058A6.244,6.244,0,0,0,92.395,39.2Z" transform="translate(-47.078 -7.745)" fill="#dfb749"/>
    <path id="Path_10806" data-name="Path 10806" d="M32.2,46.395c.358.805.537,1.253.895,2.058a8.439,8.439,0,0,0,2.058-.895c-.358-.805-.537-1.253-.895-2.058A8.439,8.439,0,0,1,32.2,46.395Z" transform="translate(-15.706 -11.078)" fill="#dfb749"/>
    <path id="Path_10807" data-name="Path 10807" d="M30.195,54.795a20.29,20.29,0,0,0,2.237-.537c-.358-.805-.537-1.253-.895-2.058a16.364,16.364,0,0,1-2.237.537C29.658,53.542,29.837,53.945,30.195,54.795Z" transform="translate(-14.169 -14.623)" fill="#dfb749"/>
    <path id="Path_10808" data-name="Path 10808" d="M31.153,38.358c-.358-.805-.537-1.253-.895-2.058a8.439,8.439,0,0,1-2.058.895c.358.805.537,1.253.895,2.058A9.259,9.259,0,0,0,31.153,38.358Z" transform="translate(-13.59 -6.228)" fill="#dfb749"/>
    <path id="Path_10809" data-name="Path 10809" d="M25.2,43.537c.358.805.537,1.253.895,2.058a20.29,20.29,0,0,0,2.237-.537c-.358-.805-.537-1.253-.895-2.058C26.542,43.224,26.095,43.313,25.2,43.537Z" transform="translate(-12.001 -9.769)" fill="#dfb749"/>
    <path id="Path_10810" data-name="Path 10810" d="M22.2,49.147c.358.805.537,1.253.895,2.058.895-.179,1.387-.268,2.282-.447-.358-.805-.537-1.253-.895-2.058C23.542,48.924,23.095,48.968,22.2,49.147Z" transform="translate(-10.415 -12.779)" fill="#dfb749"/>
    <path id="Path_10811" data-name="Path 10811" d="M20.195,56.995a16.363,16.363,0,0,1,2.237-.537c-.358-.805-.537-1.253-.895-2.058a20.291,20.291,0,0,0-2.237.537C19.658,55.742,19.837,56.145,20.195,56.995Z" transform="translate(-8.882 -15.783)" fill="#dfb749"/>
    <path id="Path_10812" data-name="Path 10812" d="M23.337,33.7a16.364,16.364,0,0,1-2.237.537c.358.805.537,1.253.895,2.058a20.29,20.29,0,0,0,2.237-.537C23.874,34.953,23.695,34.55,23.337,33.7Z" transform="translate(-9.834 -4.862)" fill="#dfb749"/>
    <path id="Path_10813" data-name="Path 10813" d="M21.276,41.658c-.358-.805-.537-1.253-.895-2.058-.895.179-1.387.268-2.282.447.358.805.537,1.253.895,2.058C19.934,41.882,20.382,41.837,21.276,41.658Z" transform="translate(-8.247 -7.976)" fill="#dfb749"/>
    <path id="Path_10814" data-name="Path 10814" d="M15.2,45.737c.358.805.537,1.253.895,2.058a16.363,16.363,0,0,1,2.237-.537c-.358-.805-.537-1.253-.895-2.058A9.086,9.086,0,0,0,15.2,45.737Z" transform="translate(-7.018 -10.929)" fill="#dfb749"/>
    <path id="Path_10815" data-name="Path 10815" d="M12.6,51.895c.358.805.537,1.253.895,2.058a8.439,8.439,0,0,1,2.058-.895c-.358-.805-.537-1.253-.895-2.058A9.259,9.259,0,0,0,12.6,51.895Z" transform="translate(-5.581 -13.978)" fill="#dfb749"/>
    <path id="Path_10816" data-name="Path 10816" d="M10.6,59.121c.358.805.537,1.253.895,2.058a7.047,7.047,0,0,1,1.79-1.521c-.358-.805-.537-1.253-.895-2.058A6.244,6.244,0,0,0,10.6,59.121Z" transform="translate(-4.476 -17.43)" fill="#dfb749"/>
    <path id="Path_10817" data-name="Path 10817" d="M13.337,35.9a20.291,20.291,0,0,0-2.237.537c.358.805.537,1.253.895,2.058a16.363,16.363,0,0,1,2.237-.537C13.874,37.153,13.695,36.75,13.337,35.9Z" transform="translate(-4.752 -6.022)" fill="#dfb749"/>
    <path id="Path_10818" data-name="Path 10818" d="M10.558,41.8a8.439,8.439,0,0,0-2.058.895c.358.805.537,1.253.895,2.058a8.439,8.439,0,0,1,2.058-.895A16.823,16.823,0,0,0,10.558,41.8Z" transform="translate(-3.316 -9.128)" fill="#dfb749"/>
    <path id="Path_10819" data-name="Path 10819" d="M6.6,49.921c.358.805.537,1.253.895,2.058a7.047,7.047,0,0,1,1.79-1.521c-.358-.805-.537-1.253-.895-2.058A5.251,5.251,0,0,0,6.6,49.921Z" transform="translate(-2.266 -12.587)" fill="#dfb749"/>
    <path id="Path_10820" data-name="Path 10820" d="M2.5,40.721c.358.805.537,1.253.895,2.058a7.047,7.047,0,0,1,1.79-1.521c-.358-.805-.537-1.253-.895-2.058A6.245,6.245,0,0,0,2.5,40.721Z" transform="translate(0 -7.745)" fill="#dfb749"/>
  </g>
</svg>
