<svg id="Race_car" data-name="Race car" xmlns="http://www.w3.org/2000/svg" width="42.75" height="14.938" viewBox="0 0 42.75 14.938">
  <path id="Path_10787" data-name="Path 10787" d="M9941.91,36010.18c-.234.352-.061,1.117-.025,1.523,1.35-.18,1.416-.25,2.127-1.211A11.039,11.039,0,0,0,9941.91,36010.18Zm35.912,2.7a3.965,3.965,0,1,1-3.961,3.969A3.964,3.964,0,0,1,9977.822,36012.875Zm0,1.031a2.93,2.93,0,1,1-2.932,2.938A2.937,2.937,0,0,1,9977.822,36013.906Zm0,.406a2.523,2.523,0,1,0,2.525,2.531A2.527,2.527,0,0,0,9977.822,36014.313Zm-29.322-2.133a3.941,3.941,0,1,1-3.939,3.938A3.947,3.947,0,0,1,9948.5,36012.18Zm0,1.016a2.93,2.93,0,1,1-2.93,2.922A2.93,2.93,0,0,1,9948.5,36013.2Zm0,.406a2.527,2.527,0,1,0,2.525,2.516A2.519,2.519,0,0,0,9948.5,36013.6Zm33.9,4.82a5.351,5.351,0,0,0,1.318-4.781c-.547-3.453-9.561-3.375-11.795-3.539s-3.033-.164-3.033-.164-4.551-4.43-12.975-4.047c-2.344.109-14.193,1.883-14.441,4.531-.025.273.213,1.906-.029,2.039-.379.211-.316.445-.3.859.021.43.422.211.275,1.477s-.969,1.852.484,2.359a5.422,5.422,0,0,0,1.959.391,4.845,4.845,0,1,1,9.477-1.43,4.789,4.789,0,0,1-.615,2.367l20.625.336.029-.031a4.844,4.844,0,1,1,9.018-.367Zm-27.812-7.352h1.6a.359.359,0,0,1,0,.719h-1.6A.359.359,0,0,1,9954.59,36011.07Zm-3.434-2.508,9.838-1.664,5.6,2.977-12.7.313Z" transform="translate(-9941.062 -36005.867)" fill="#dfb749" fill-rule="evenodd"/>
</svg>
