<svg xmlns="http://www.w3.org/2000/svg" width="86" height="86" viewBox="0 0 86 86">
  <g id="noun-clock-time-1644807" transform="translate(-7 -7)">
    <g id="Group_10831" data-name="Group 10831" transform="translate(0 -952.362)">
      <path id="Path_27025" data-name="Path 27025" d="M50,7A43,43,0,1,0,92,59.25a1.008,1.008,0,1,0-1.969-.437A40.957,40.957,0,1,1,91,50a1.015,1.015,0,0,0,2,0A43.015,43.015,0,0,0,50,7Zm0,8A35,35,0,1,0,85,50,35.015,35.015,0,0,0,50,15Zm0,2A33,33,0,1,1,17,50,32.985,32.985,0,0,1,50,17Zm0,5a2,2,0,1,0,2,2A2,2,0,0,0,50,22Zm-.094,8.969A1.116,1.116,0,0,0,49,32V47.188A2.991,2.991,0,1,0,52.813,51H65a1,1,0,1,0,0-2H52.813A3.012,3.012,0,0,0,51,47.188V32a1,1,0,0,0-1.094-1.031ZM24,48a2,2,0,1,0,2,2A2,2,0,0,0,24,48Zm52,0a2,2,0,1,0,2,2A2,2,0,0,0,76,48ZM50,74a2,2,0,1,0,2,2A2,2,0,0,0,50,74Z" transform="translate(0 952.362)" fill="#ffd675"/>
    </g>
  </g>
</svg>
