<svg xmlns="http://www.w3.org/2000/svg" width="45" height="45" viewBox="0 0 45 45">
  <g id="Group_10750" data-name="Group 10750" transform="translate(-48.5 -13473.5)">
    <circle id="Ellipse_740" data-name="Ellipse 740" cx="22" cy="22" r="22" transform="translate(49 13474)" fill="none" stroke="#de6f00" stroke-width="1"/>
    <path id="Path_2740" data-name="Path 2740" d="M202.005,180.1a.807.807,0,0,0-.188-.471l-5.333-5.816a.656.656,0,0,0-.943-.027.719.719,0,0,0-.026.968l4.281,4.661H182.672a.684.684,0,0,0,0,1.368H199.8l-4.281,4.661a.73.73,0,0,0,.026.967.656.656,0,0,0,.943-.027l5.333-5.816a.616.616,0,0,0,.188-.47Z" transform="translate(251.6 13303.995) rotate(90)" fill="#de6f00"/>
  </g>
</svg>
