<svg xmlns="http://www.w3.org/2000/svg" width="36" height="36" viewBox="0 0 36 36">
  <g id="binance-coin-seeklogo.com" transform="translate(-0.006)">
    <path id="Path_11404" data-name="Path 11404" d="M11.014,15.128l6.991-6.991L25,15.131l4.068-4.068L18.006,0,6.947,11.06l4.068,4.068M.006,18l4.068-4.068L8.142,18,4.074,22.067Zm11.008,2.873,6.991,6.991L25,20.869l4.07,4.066,0,0L18.006,36,6.946,24.941l-.006-.006,4.074-4.063M27.87,18l4.068-4.068L36.006,18l-4.068,4.068Z" transform="translate(0)" fill="#ffdd98"/>
    <path id="Path_11405" data-name="Path 11405" d="M778.577,774.563h0l-4.013-4.013-2.966,2.966h0l-.341.341-.7.7-.006.005.006.006,4.01,4.01,4.013-4.013,0,0,0,0" transform="translate(-756.56 -756.565)" fill="#ffdd98"/>
  </g>
</svg>
