<svg xmlns="http://www.w3.org/2000/svg" width="22" height="36" viewBox="0 0 22 36">
  <g id="noun-ethereum-4618636" transform="translate(-467.694 1368.891)">
    <path id="Path_11399" data-name="Path 11399" d="M278.694,240.73a.844.844,0,0,1-.175.517l-10.083,13.965a.92.92,0,0,1-1.48,0L256.862,241.23a.854.854,0,0,1,.11-1.139.925.925,0,0,1,1.18-.058l9.544,7.009,9.544-7a.918.918,0,0,1,.5-.181h.058a.888.888,0,0,1,.894.873Z" transform="translate(211 -1588.476)" fill="#ffdd98"/>
    <path id="Path_11403" data-name="Path 11403" d="M283.66,82.545l-9.344-15.012a.922.922,0,0,0-1.551,0L263.42,82.545a.854.854,0,0,0,.224,1.142l9.343,6.961a.93.93,0,0,0,1.106,0l9.343-6.961a.854.854,0,0,0,.223-1.142Zm-1.483.141h0a.766.766,0,0,1-.433.393.8.8,0,0,1-.593-.018l-7.324-3.206a.719.719,0,0,0-.574,0l-7.324,3.2a.8.8,0,0,1-.6.025.767.767,0,0,1-.439-.394.724.724,0,0,1-.017-.578.759.759,0,0,1,.414-.417l7.93-3.472h0a.8.8,0,0,1,.646,0l7.93,3.472a.739.739,0,0,1,.381.993Z" transform="translate(205.156 -1436)" fill="#ffdd98"/>
  </g>
</svg>
