<svg xmlns="http://www.w3.org/2000/svg" width="36" height="31.676" viewBox="0 0 36 31.676">
  <g id="polygon-matic-seeklogo.com" transform="translate(0 0.1)">
    <path id="Path_11406" data-name="Path 11406" d="M27.258,9.581a2.4,2.4,0,0,0-2.256,0l-5.264,3.1-3.572,1.974L11,17.759a2.4,2.4,0,0,1-2.256,0L4.7,15.315a2.291,2.291,0,0,1-1.128-1.974v-4.7A2.318,2.318,0,0,1,4.7,6.668l4.042-2.35a2.4,2.4,0,0,1,2.256,0l4.042,2.444a2.291,2.291,0,0,1,1.128,1.974v3.1l3.572-2.068v-3.2A2.318,2.318,0,0,0,18.611,4.6L11.091.182a2.4,2.4,0,0,0-2.256,0L1.128,4.694A2.068,2.068,0,0,0,0,6.574v8.836a2.318,2.318,0,0,0,1.128,1.974L8.742,21.8A2.4,2.4,0,0,0,11,21.8l5.17-3.008,3.572-2.068,5.17-3.008a2.4,2.4,0,0,1,2.256,0l4.042,2.35a2.291,2.291,0,0,1,1.128,1.974v4.7a2.318,2.318,0,0,1-1.128,1.974l-3.948,2.35a2.4,2.4,0,0,1-2.256,0l-4.042-2.35a2.291,2.291,0,0,1-1.128-1.974V19.733L16.261,21.8v3.1a2.318,2.318,0,0,0,1.128,1.974L25,31.294a2.4,2.4,0,0,0,2.256,0l7.614-4.418A2.291,2.291,0,0,0,36,24.9v-8.93A2.318,2.318,0,0,0,34.872,14Z" transform="translate(0 0)" fill="#ffdd98"/>
  </g>
</svg>
