<svg xmlns="http://www.w3.org/2000/svg" width="40.001" height="50" fill="#FFDD98" viewBox="0 0 40.001 50">
  <g id="Group_10505" data-name="Group 10505" transform="translate(-9067 -7146.508)">
    <path id="Path_11294" data-name="Path 11294" d="M341.539,176.219a1.6,1.6,0,1,0,2.78,1.6l.423-.736-2.78-1.6Z" transform="translate(8744.879 6986.688)"/>
    <path id="Path_11295" data-name="Path 11295" d="M385.271,191.73l3.021-1.736L386,186.008a1.617,1.617,0,0,0-.824-.7l-.943,1.641,1.188,1.74a2.468,2.468,0,0,1,.1,2.606Z" transform="translate(8705.735 6977.738)"/>
    <path id="Path_11296" data-name="Path 11296" d="M236.51,250.253a7.107,7.107,0,0,0,8.472,4.868l2.635-4.586-8.472-4.868Z" transform="translate(8840.426 6922.752)"/>
    <path id="Path_11297" data-name="Path 11297" d="M272.818,184.9l-2.291,3.987L279,193.755l2.291-3.987a1.629,1.629,0,0,0-.067-1.72l-1.013-1.484a2.42,2.42,0,0,1-1.094.639,2.452,2.452,0,0,1-.64.085,2.439,2.439,0,0,1-2.35-3.07l-1.789-.128a1.627,1.627,0,0,0-1.519.809Z" transform="translate(8809.386 6978.839)"/>
    <path id="Path_11298" data-name="Path 11298" d="M373.37,109.8l1.261-2.194,2.78,1.6-1.261,2.194Z" transform="translate(8715.645 7048.51)"/>
    <path id="Path_11299" data-name="Path 11299" d="M399.42,100.454a2.45,2.45,0,0,1,1.128,1.018l5.663,9.856c1.565-1.572,4.856-2.511,6.414-2.883-1.289-1.156-3.962-4-3.962-7.7,0-3.357,2.2-6.327,3.563-7.843a22.338,22.338,0,0,1-8.659.341Z" transform="translate(8691.65 7061.884)"/>
    <path id="Path_11300" data-name="Path 11300" d="M353.07,142.572l1.406-2.447,2.78,1.6-1.406,2.447Z" transform="translate(8734.158 7018.889)"/>
    <path id="Path_11301" data-name="Path 11301" d="M281.58,109.215l2.78-1.6,1.261,2.194-2.78,1.6Z" transform="translate(8799.366 7048.495)"/>
    <path id="Path_11302" data-name="Path 11302" d="M301.466,143.255l2.1.15.676-1.176-1.2-2.087-2.78,1.6.871,1.515a2.434,2.434,0,0,1,.331,0Z" transform="translate(8782.324 7018.874)"/>
    <path id="Path_11303" data-name="Path 11303" d="M361.791,254.374a7.207,7.207,0,0,0,3.267-4.12l-2.635-4.586-4.262,2.449-2.8,4.874,1.224,2.131a7.248,7.248,0,0,0,5.206-.747Z" transform="translate(8731.996 6922.751)"/>
    <path id="Path_11304" data-name="Path 11304" d="M153.34,108.443c1.557.372,4.848,1.311,6.414,2.883l5.663-9.857a2.458,2.458,0,0,1,1.129-1.017L162.4,93.235a22.337,22.337,0,0,1-8.659-.341c1.361,1.517,3.563,4.487,3.563,7.844,0,3.7-2.674,6.549-3.963,7.7Z" transform="translate(8916.386 7061.886)"/>
    <path id="Path_11305" data-name="Path 11305" d="M316.94,341.8a13.578,13.578,0,0,1,2.965,4.916,13.586,13.586,0,0,1,2.965-4.916l-2.965-5.16Z" transform="translate(8767.096 6839.891)"/>
    <path id="Path_11306" data-name="Path 11306" d="M392.892,323.617l-9.3-16.177a7.94,7.94,0,0,1-7.371,4.943,8.124,8.124,0,0,1-1.1-.075l9.294,16.177a3.547,3.547,0,0,0,2.484,1.522,5.469,5.469,0,0,0,6.052-3.477,3.545,3.545,0,0,0-.063-2.913Z" transform="translate(8713.768 6866.417)"/>
    <path id="Path_11307" data-name="Path 11307" d="M139.953,312.382a7.94,7.94,0,0,1-7.371-4.943l-9.294,16.177a3.545,3.545,0,0,0-.064,2.912,5.47,5.47,0,0,0,6.052,3.477,3.545,3.545,0,0,0,2.484-1.522l9.3-16.177a8,8,0,0,1-1.1.076Z" transform="translate(8944.053 6866.418)"/>
    <path id="Path_11308" data-name="Path 11308" d="M394.84,14.06l4.7-8.188a.779.779,0,0,0-.287-1.063l-1.431-.822a.774.774,0,0,0-.386-.1.785.785,0,0,0-.2.027.773.773,0,0,0-.472.364l-4.7,8.188Z" transform="translate(8698.547 7142.973)"/>
    <path id="Path_11309" data-name="Path 11309" d="M310.66,6.337A21.5,21.5,0,0,1,306.361,0a21.5,21.5,0,0,1-4.3,6.337l4.3,7.482Z" transform="translate(8780.64 7146.508)"/>
    <path id="Path_11310" data-name="Path 11310" d="M228.143,14.063l2.78-1.6-4.7-8.189a.779.779,0,0,0-1.063-.287l-1.431.822a.779.779,0,0,0-.287,1.063Z" transform="translate(8852.472 7142.97)"/>
  </g>
</svg>
