<svg xmlns="http://www.w3.org/2000/svg" width="47" height="51" fill="#FFDD98" viewBox="0 0 47 51">
  <path id="Path_11234" data-name="Path 11234" d="M173.921,63.127q-.266,2.047-.713,4.034A46.138,46.138,0,0,1,153.269,95.7c-.164.105-.328.212-.492.314a3.162,3.162,0,0,1-1.5.357,3.225,3.225,0,0,1-1.454-.357c-.164-.1-.332-.209-.5-.319A46.613,46.613,0,0,1,133.9,79.1q-1.03-1.875-1.886-3.855A45.355,45.355,0,0,1,128.3,57.237c0-1.116.043-2.224.121-3.323h.009a3.121,3.121,0,0,1,1.6-2.538c.1-.051.2-.1.3-.148a47.667,47.667,0,0,1,41.9-.017c.13.06.254.124.384.189a3.139,3.139,0,0,1,1.55,2.352c0,.06.009.121.012.183v0q.124,1.637.121,3.3a45.918,45.918,0,0,1-.381,5.89Zm-3.677-9.513q-.726-.338-1.465-.642a45.148,45.148,0,0,0-6.013-2.023,45.867,45.867,0,0,0-22.93,0,44.433,44.433,0,0,0-6,2.02c-.456.186-.907.384-1.355.589v0a1.227,1.227,0,0,0-.228.1,1.454,1.454,0,0,0-.73,1.035,1.487,1.487,0,0,0-.022.247,1.374,1.374,0,0,0,.009.145c-.018.454-.027.91-.027,1.366,0,.052,0,.106,0,.161A44.258,44.258,0,0,0,134.9,73.7a42.918,42.918,0,0,0,1.98,4.121c.219.4.447.8.68,1.2a45.025,45.025,0,0,0,11.8,13.176c.338.253.68.5,1.022.745l.1.068a1.515,1.515,0,0,0,1.633,0c.027-.018.091-.064.1-.068.342-.245.684-.492,1.022-.745a45.048,45.048,0,0,0,11.8-13.176,44.156,44.156,0,0,0,4.735-11.536,42.456,42.456,0,0,0,.88-4.426,44.021,44.021,0,0,0,.475-6.441c0-.055,0-.108,0-.164,0-.523-.009-1.044-.032-1.566,0-.01-.036-.348-.036-.354-.03-.52-.334-.691-.813-.919Zm-2.58,8.234c0,.04-.009.081-.013.123a2.119,2.119,0,0,1-1.631,1.7c-.117.012-.233.03-.349.046h0c-1.816.251-3.7.59-5.62,1a9.045,9.045,0,0,0-17.473,3.407,9.277,9.277,0,0,0,.226,2.01c-.936.385-1.873.776-2.813,1.193-.254.112-.5.223-.755.338l-.362.165a1.391,1.391,0,0,1-.406.057,1.412,1.412,0,0,1-1.252-.747c-.043-.108-.086-.221-.125-.331a39.31,39.31,0,0,1-2.416-13.2v-.176a2.065,2.065,0,0,1,.121-.633,2.094,2.094,0,0,1,.574-.849,2.2,2.2,0,0,1,.6-.377A40.218,40.218,0,0,1,141,53.925a41.567,41.567,0,0,1,20.613,0,40.476,40.476,0,0,1,5.032,1.655,2.093,2.093,0,0,1,1.178,1.237,2.062,2.062,0,0,1,.116.621v.176a38.953,38.953,0,0,1-.268,4.218.017.017,0,0,1,0,.014Zm-22.492,6.288a6.464,6.464,0,1,1,6.464,6.55A6.507,6.507,0,0,1,145.171,68.136Zm-3.71,7.253c.108-.049.211-.1.319-.144.052-.021.108-.047.16-.072h.009q1.372-.606,2.736-1.164a9,9,0,0,0,6.951,3.29,9.1,9.1,0,0,0,9.026-8.439c1.174-.269,2.333-.518,3.458-.722.091-.017.178-.034.264-.047a1.2,1.2,0,0,1,.121-.009,1.4,1.4,0,0,1,1.416,1.392,1.478,1.478,0,0,1-.03.28v0c-.035.1-.065.2-.1.3a38.992,38.992,0,0,1-3.323,7.19,40.46,40.46,0,0,1-10.211,11.468c-.056.046-.112.088-.168.131a1.612,1.612,0,0,1-.272.14,1.441,1.441,0,0,1-1.018,0,1.644,1.644,0,0,1-.272-.14c-.056-.043-.112-.085-.168-.131a40.586,40.586,0,0,1-9.6-10.466l0,0a2.042,2.042,0,0,1-.307-1.08,2.077,2.077,0,0,1,1.01-1.777Z" transform="translate(-127.802 -45.87)" stroke="rgba(0,0,0,0)" stroke-width="1" fill-rule="evenodd"/>
</svg>
