<svg xmlns="http://www.w3.org/2000/svg" width="50" height="49.017" viewBox="0 0 50 49.017">
  <g id="Group_10507" data-name="Group 10507" transform="translate(-9101 -7553.35)">
    <path fill="#FFDD98" id="Path_11322" data-name="Path 11322" d="M109.451,125.661l14.935-14.934" transform="translate(8995.172 7445.453)" stroke="#FFDD98" stroke-linecap="round" stroke-linejoin="round" stroke-width="4"/>
    <path fill="#FFDD98" id="Path_11323" data-name="Path 11323" d="M109.451,110.724l14.935,14.934" transform="translate(8995.172 7445.455)" stroke="#FFDD98" stroke-linecap="round" stroke-linejoin="round" stroke-width="4"/>
    <path fill="#FFDD98" id="Path_11324" data-name="Path 11324" d="M336.278,333.947H324.753a2.736,2.736,0,0,1-2.76-2.76V319.662a2.736,2.736,0,0,1,2.76-2.76h11.526a2.736,2.736,0,0,1,2.76,2.76v11.526A2.841,2.841,0,0,1,336.278,333.947Z" transform="translate(8808.988 7265.771)" stroke="#FFDD98" stroke-linecap="round" stroke-linejoin="round" stroke-width="4"/>
    <path fill="#FFDD98" id="Path_11325" data-name="Path 11325" d="M114.9,322.174a9.091,9.091,0,1,1-9.091-9.091,9.091,9.091,0,0,1,9.091,9.091" transform="translate(9006.277 7269.102)" stroke="#FFDD98" stroke-linecap="round" stroke-linejoin="round" stroke-width="4"/>
    <path fill="#FFDD98" id="Path_11326" data-name="Path 11326" d="M322.66,104.361l-9.578,16.558h19.155Z" transform="translate(8816.763 7451.005)" stroke="#FFDD98" stroke-linecap="round" stroke-linejoin="round" stroke-width="4"/>
  </g>
</svg>
