<svg xmlns="http://www.w3.org/2000/svg" width="46" height="46" fill="#FFDD98" viewBox="0 0 46 46">
  <g id="Group_10503" data-name="Group 10503" transform="translate(-9185.567 -7464)">
    <path id="Path_11239" data-name="Path 11239" d="M203.38,89.344h46v7.424h-46Z" transform="translate(8982.188 7384.962)"/>
    <path id="Path_11240" data-name="Path 11240" d="M220.61,152.47h14.971v26.484H220.61Z" transform="translate(8967.754 7331.046)"/>
    <path id="Path_11241" data-name="Path 11241" d="M330.14,152.47H336.6v26.484H330.14Z" transform="translate(8875.203 7331.046)"/>
    <path id="Path_11242" data-name="Path 11242" d="M387.16,152.47h14.971v26.484H387.16Z" transform="translate(8826.64 7331.046)"/>
    <path id="Path_11243" data-name="Path 11243" d="M300.516,31.411a4.977,4.977,0,0,0-.49-6.432,4.853,4.853,0,0,0-6.933,0,14.211,14.211,0,0,0-1.839,2.534,1.461,1.461,0,0,1-2.533,0,13.749,13.749,0,0,0-1.838-2.534,4.853,4.853,0,0,0-6.933,0,4.991,4.991,0,0,0-.49,6.432Z" transform="translate(8918.579 7440.478)"/>
  </g>
</svg>
