<svg xmlns="http://www.w3.org/2000/svg" width="46" height="50" fill="#FFDD98" viewBox="0 0 46 50">
  <g id="Group_10504" data-name="Group 10504" transform="translate(-9167.083 -7724.891)">
    <path id="Path_11244" data-name="Path 11244" d="M133.5,334.5A25.1,25.1,0,0,0,120.1,314.53a12.349,12.349,0,0,1-4.479,3.518,2.281,2.281,0,0,1-.357,3.988,2.288,2.288,0,0,1-.783,2.875l-.191.773c-.664,2.694-2.045,4.238-3.79,4.238s-3.125-1.544-3.788-4.238l-.19-.773a2.288,2.288,0,0,1-.783-2.875,2.281,2.281,0,0,1-.357-3.988,12.356,12.356,0,0,1-4.479-3.518A25.1,25.1,0,0,0,87.514,334.5a1.361,1.361,0,0,0,1.32,1.56h43.342a1.361,1.361,0,0,0,1.32-1.56Z" transform="translate(9079.578 7438.827)"/>
    <path id="Path_11245" data-name="Path 11245" d="M326.05,440.57c.99,0,1.851-1.239,2.3-3.07h-4.606C324.2,439.332,325.062,440.57,326.05,440.57Z" transform="translate(8864.032 7326.499)"/>
    <path id="Path_11246" data-name="Path 11246" d="M306.712,368.268a.789.789,0,0,0-.808-.768h-7.595a.769.769,0,1,0,0,1.535H305.9A.789.789,0,0,0,306.712,368.268Z" transform="translate(8887.977 7390.222)"/>
    <path id="Path_11247" data-name="Path 11247" d="M317.539,403.268a.773.773,0,0,0-.778-.768h-5.353a.768.768,0,1,0,0,1.535h5.353a.773.773,0,0,0,.778-.768Z" transform="translate(8875.998 7358.349)"/>
    <path id="Path_11248" data-name="Path 11248" d="M342.018,7.293a.783.783,0,0,0,.768-.8V.8a.768.768,0,1,0-1.535,0V6.5A.783.783,0,0,0,342.018,7.293Z" transform="translate(8848.065 7724.891)"/>
    <path id="Path_11249" data-name="Path 11249" d="M490,219.518a.783.783,0,0,0,.8.768h5.7a.768.768,0,1,0,0-1.535h-5.7A.783.783,0,0,0,490,219.518Z" transform="translate(8712.336 7525.683)"/>
    <path id="Path_11250" data-name="Path 11250" d="M127.671,220.285h5.7a.768.768,0,1,0,0-1.535h-5.7a.768.768,0,1,0,0,1.535Z" transform="translate(9043.663 7525.683)"/>
    <path id="Path_11251" data-name="Path 11251" d="M445.06,64.087l4.029-4.029A.768.768,0,1,0,448,58.972L443.975,63a.768.768,0,1,0,1.086,1.085Z" transform="translate(8754.555 7671.311)"/>
    <path id="Path_11252" data-name="Path 11252" d="M188.076,68.861a.768.768,0,1,0,1.085-1.086l-4.029-4.029a.768.768,0,1,0-1.085,1.085Z" transform="translate(8991.713 7666.956)"/>
    <path id="Path_11253" data-name="Path 11253" d="M248.993,115.747A10.747,10.747,0,1,1,238.247,105a10.746,10.746,0,0,1,10.747,10.747" transform="translate(8951.836 7629.393)"/>
  </g>
</svg>
