<?xml version="1.0" encoding="UTF-8"?>
<svg id="Layer_2" data-name="Layer 2" xmlns="http://www.w3.org/2000/svg" viewBox="0 0 476.16 81.23">
  <defs>
    <style>
      .cls-1 {
        fill: #2c8cf4;
      }

      .cls-1, .cls-2 {
        stroke-width: 0px;
      }

      .cls-2 {
        fill: #fff;
      }
    </style>
  </defs>
  <g id="Layer_1-2" data-name="Layer 1">
    <g>
      <g>
        <path class="cls-1" d="M60.04,0c-12.68,0-22.96,10.28-22.96,22.96,0,.82.05,1.64.13,2.44h0c2.44,22.83-11.45,31.11-23.16,32.36h0c-5.91.63-10.52,5.63-10.52,11.71,0,6.5,5.27,11.77,11.77,11.77s11.33-4.85,11.73-10.99h.01c.8-11.73,8.53-25.94,31.44-24.38h0c.52.03,1.04.05,1.56.05,12.68,0,22.96-10.28,22.96-22.96S72.72,0,60.04,0Z"/>
        <circle class="cls-1" cx="15.3" cy="34.14" r="15.3"/>
        <circle class="cls-1" cx="48.86" cy="65.93" r="7.06"/>
      </g>
      <g>
        <path class="cls-2" d="M122.68,27.52c6.18,0,11.48,2.2,15.88,6.61,4.41,4.41,6.61,9.7,6.61,15.88,0,.18-.02.34-.04.49v.18h.04v21.82h-12.73v-22.13h-.04s.04-.07.04-.13v-.22c0-2.69-.96-4.99-2.87-6.9-1.91-1.91-4.21-2.87-6.9-2.87s-4.99.96-6.9,2.87c-1.91,1.91-2.87,4.21-2.87,6.9v22.54h-12.73v-23.7h.04c.45-6.06,2.8-11.13,7.06-15.21,4.26-4.08,9.39-6.12,15.39-6.12Z"/>
        <path class="cls-2" d="M174.83,27.56c6.18,0,11.48,2.2,15.88,6.61,4.41,4.41,6.61,9.7,6.61,15.88s-2.2,11.52-6.61,15.93c-4.41,4.41-9.7,6.61-15.88,6.61s-11.52-2.2-15.91-6.61c-4.39-4.41-6.59-9.72-6.59-15.93s2.2-11.48,6.59-15.88c4.39-4.41,9.69-6.61,15.91-6.61ZM174.83,59.87c2.69,0,4.99-.96,6.9-2.87,1.91-1.91,2.87-4.23,2.87-6.95s-.96-4.99-2.87-6.9c-1.91-1.91-4.21-2.87-6.9-2.87s-4.99.96-6.9,2.87-2.87,4.21-2.87,6.9.96,5.03,2.87,6.95c1.91,1.91,4.21,2.87,6.9,2.87Z"/>
        <path class="cls-2" d="M249.44,49.43v.67c0,6.18-2.2,11.48-6.59,15.88-4.39,4.41-9.69,6.61-15.91,6.61s-11.47-2.2-15.86-6.61c-4.39-4.41-6.59-9.7-6.59-15.88s2.2-11.52,6.59-15.91c4.39-4.39,9.68-6.59,15.86-6.59,3.52,0,6.78.75,9.77,2.24V8.3h12.73v41.13ZM226.94,59.87c2.72,0,5.03-.96,6.92-2.87,1.9-1.91,2.84-4.21,2.84-6.9s-.95-4.99-2.84-6.9c-1.9-1.91-4.21-2.87-6.92-2.87s-4.99.96-6.9,2.87-2.87,4.21-2.87,6.9.96,4.99,2.87,6.9c1.91,1.91,4.21,2.87,6.9,2.87Z"/>
        <path class="cls-2" d="M279.1,27.56c6.18,0,11.48,2.2,15.88,6.61,4.41,4.41,6.61,9.7,6.61,15.88,0,1.37-.12,2.72-.36,4.03h-31.01c1.97,3.85,4.93,5.78,8.87,5.78,2.27,0,4.27-.7,6-2.11h15.15c-4.39,9.89-11.44,14.83-21.15,14.83-6.21,0-11.52-2.2-15.91-6.61-4.39-4.41-6.59-9.72-6.59-15.93s2.2-11.48,6.59-15.88c4.39-4.41,9.69-6.61,15.91-6.61ZM270.81,44.9h16.58c-2.03-3.08-4.79-4.62-8.29-4.62s-6.26,1.54-8.29,4.62Z"/>
        <path class="cls-2" d="M348.64,42.13h-12.72c.03-.06.06-.1.09-.13s.05-.07.07-.11.02-.1.02-.16c0-.18-.15-.45-.45-.81-.78-.78-1.99-1.39-3.63-1.84-1.61-.42-3.27-.57-4.97-.45-1.73.15-3.21.51-4.44,1.08-.42.21-.81.46-1.17.74-.36.28-.63.64-.81,1.05-.03.12-.04.24-.04.36.03.12.06.22.09.31.3.45.69.78,1.19.99.49.21.99.36,1.5.45.12.03.22.06.31.09,1.79.42,3.82.79,6.09,1.12.21.03.42.06.63.09,2,.27,4.18.69,6.54,1.25,1.31.3,2.72.81,4.21,1.52.75.39,1.52.88,2.33,1.48.81.6,1.55,1.36,2.24,2.29.69.96,1.19,2,1.52,3.14.3,1.11.45,2.17.45,3.18.03,1.79-.31,3.6-1.03,5.42-.78,1.79-1.82,3.32-3.14,4.57-1.32,1.23-2.69,2.18-4.12,2.87-2.87,1.34-5.72,2.09-8.56,2.24-2.81.21-5.63-.02-8.47-.67-1.4-.33-2.82-.81-4.26-1.43-1.43-.63-2.84-1.51-4.21-2.64-1.4-1.17-2.6-2.66-3.58-4.48-.48-.9-.85-1.84-1.12-2.82-.24-1.02-.39-2.02-.45-3h12.73c-.06.12-.1.23-.11.34-.02.1-.02.22-.02.34,0,.21.15.49.45.85.69.78,1.82,1.42,3.41,1.93,1.58.45,3.21.63,4.88.54,1.7-.12,3.18-.46,4.44-1.03.72-.33,1.31-.78,1.79-1.34.33-.39.45-.85.36-1.39,0-.18-.06-.34-.18-.49-.09-.12-.22-.22-.38-.29-.16-.07-.32-.14-.47-.2-.06-.03-.12-.04-.18-.04-.42-.18-.85-.31-1.3-.4-1.76-.45-3.76-.84-6-1.17-.27-.03-.54-.06-.81-.09-1.97-.27-4.09-.67-6.36-1.21-1.29-.3-2.66-.76-4.12-1.39-1.49-.63-3-1.73-4.53-3.32-.72-.84-1.32-1.79-1.79-2.87-.42-1.08-.69-2.14-.81-3.18-.03-.51-.04-1-.04-1.48,0-.45.03-.91.09-1.39.12-.96.34-1.9.67-2.82.69-1.91,1.7-3.52,3.05-4.84,1.31-1.28,2.7-2.27,4.17-2.96,2.84-1.37,5.66-2.15,8.47-2.33,2.78-.24,5.57-.07,8.38.49,1.4.3,2.82.73,4.26,1.3s2.87,1.37,4.3,2.42c1.43,1.05,2.7,2.48,3.81,4.3,1.04,1.91,1.63,3.93,1.75,6.05Z"/>
        <path class="cls-2" d="M378.3,27.56c6.21,0,11.52,2.2,15.91,6.59,4.39,4.39,6.59,9.69,6.59,15.91v22.54h-12.73v-2.29c-3.02,1.49-6.27,2.24-9.77,2.24-6.18,0-11.48-2.2-15.88-6.61-4.41-4.41-6.61-9.7-6.61-15.88s2.2-11.52,6.61-15.91c4.41-4.39,9.7-6.59,15.88-6.59ZM378.3,59.82c2.69,0,4.99-.96,6.9-2.87,1.91-1.91,2.87-4.21,2.87-6.9s-.96-4.99-2.87-6.9c-1.91-1.91-4.21-2.87-6.9-2.87s-4.99.96-6.9,2.87-2.87,4.21-2.87,6.9.96,4.99,2.87,6.9c1.91,1.91,4.21,2.87,6.9,2.87Z"/>
        <path class="cls-2" d="M410.2,72.59V8.3h12.68v64.3h-12.68Z"/>
        <path class="cls-2" d="M453.67,27.56c6.18,0,11.48,2.2,15.88,6.61,4.41,4.41,6.61,9.7,6.61,15.88,0,1.37-.12,2.72-.36,4.03h-31.01c1.97,3.85,4.93,5.78,8.87,5.78,2.27,0,4.27-.7,6-2.11h15.15c-4.39,9.89-11.44,14.83-21.15,14.83-6.21,0-11.52-2.2-15.91-6.61-4.39-4.41-6.59-9.72-6.59-15.93s2.2-11.48,6.59-15.88c4.39-4.41,9.69-6.61,15.91-6.61ZM445.38,44.9h16.58c-2.03-3.08-4.79-4.62-8.29-4.62s-6.26,1.54-8.29,4.62Z"/>
      </g>
    </g>
  </g>
</svg>