<svg xmlns="http://www.w3.org/2000/svg" width="65.185" height="54" viewBox="0 0 65.185 54">
  <path id="Path_11625" data-name="Path 11625" d="M3053.885-7804.018a8.433,8.433,0,0,1-3.745-2.981,8.174,8.174,0,0,1-1.357-4.763v-.431a8.125,8.125,0,0,1,1.357-4.751,8.483,8.483,0,0,1,3.745-2.968,13.75,13.75,0,0,1,5.436-1.017,13.016,13.016,0,0,1,4.823.838,8.989,8.989,0,0,1,3.407,2.262,5.855,5.855,0,0,1,1.536,3.243h-5.352a3.173,3.173,0,0,0-1.645-1.7,6.121,6.121,0,0,0-2.8-.624,5.608,5.608,0,0,0-3.827,1.125,3.683,3.683,0,0,0-1.26,2.873v1.892a3.724,3.724,0,0,0,1.26,2.871A5.521,5.521,0,0,0,3059.3-7807a5.939,5.939,0,0,0,2.845-.659,3.119,3.119,0,0,0,1.6-1.687h5.352a5.778,5.778,0,0,1-1.583,3.233,9.377,9.377,0,0,1-3.457,2.273,12.72,12.72,0,0,1-4.727.837A13.784,13.784,0,0,1,3053.885-7804.018Zm18.492.777v-17.449h5.16v13.38h9.648v4.069Zm-32.114,0v-12.59l-.024-.574h-.215l-.193.574-3.863,12.59h-4.752l-3.959-12.614-.144-.55h-.264l-.024.55v12.614H3022v-17.449h8.015l3.457,11.514h.144l3.7-11.514h7.824v17.449Zm-6.282-39.988h11.186V-7857h16.794v13.772h11.188l-19.584,16.07Z" transform="translate(-3022 7857.001)" fill="#ffdd98"/>
</svg>
