<svg xmlns="http://www.w3.org/2000/svg" width="1100.163" height="1042" viewBox="0 0 1100.163 1042"><g transform="translate(-275 -731.392)"><path d="M118.614,33.431h-.023a.689.689,0,0,0-.657.616c-1.511,7.724-5.713,12.506-13.848,13.86a.689.689,0,0,0-.612.537h0c0,.02-.008.041-.011.062l0,.02c0,.015,0,.03,0,.045s0,.023,0,.035,0,.02,0,.03,0,.033.005.05,0,.01,0,.015a.688.688,0,0,0,.626.581c8.129,1.354,12.329,6.133,13.842,13.851h0a.689.689,0,0,0,.624.622h0l.044,0h.047a.689.689,0,0,0,.657-.615c1.515-7.725,5.713-12.507,13.848-13.861h0a.689.689,0,0,0,.613-.535V48.74c0-.019.007-.038.01-.058s0-.013,0-.02,0-.03,0-.045,0-.023,0-.035,0-.02,0-.03,0-.033-.005-.05,0-.01,0-.015c0-.021-.008-.043-.013-.064a.689.689,0,0,0-.612-.517c-8.129-1.356-12.327-6.135-13.842-13.853a.689.689,0,0,0-.625-.621l-.044,0h-.025Z" transform="translate(570.543 921.964)" fill="#ebbc9a" fill-rule="evenodd"/><path d="M118.614,33.431h-.023a.689.689,0,0,0-.657.616c-1.511,7.724-5.713,12.506-13.848,13.86a.689.689,0,0,0-.612.537h0c0,.02-.008.041-.011.062l0,.02c0,.015,0,.03,0,.045s0,.023,0,.035,0,.02,0,.03,0,.033.005.05,0,.01,0,.015a.688.688,0,0,0,.626.581c8.129,1.354,12.329,6.133,13.842,13.851h0a.689.689,0,0,0,.624.622h0l.044,0h.047a.689.689,0,0,0,.657-.615c1.515-7.725,5.713-12.507,13.848-13.861h0a.689.689,0,0,0,.613-.535V48.74c0-.019.007-.038.01-.058s0-.013,0-.02,0-.03,0-.045,0-.023,0-.035,0-.02,0-.03,0-.033-.005-.05,0-.01,0-.015c0-.021-.008-.043-.013-.064a.689.689,0,0,0-.612-.517c-8.129-1.356-12.327-6.135-13.842-13.853a.689.689,0,0,0-.625-.621l-.044,0h-.025Z" transform="translate(1241.38 1158.457)" fill="#ebbc9a" fill-rule="evenodd"/><path d="M111.727,33.43h-.012a.376.376,0,0,0-.358.336c-.825,4.215-3.117,6.824-7.556,7.562a.376.376,0,0,0-.334.293h0c0,.011,0,.022-.006.034v.011c0,.008,0,.016,0,.024s0,.013,0,.019,0,.011,0,.016,0,.018,0,.027v.008a.376.376,0,0,0,.341.317c4.436.739,6.727,3.346,7.553,7.558h0a.376.376,0,0,0,.341.339h0l.024,0h.026a.376.376,0,0,0,.359-.336c.827-4.215,3.117-6.824,7.556-7.563h0a.376.376,0,0,0,.334-.292v0c0-.01,0-.021.006-.032v-.011c0-.008,0-.016,0-.025s0-.013,0-.019,0-.011,0-.016,0-.018,0-.027v-.008c0-.012,0-.023-.007-.035a.376.376,0,0,0-.334-.282c-4.436-.74-6.726-3.347-7.553-7.559a.376.376,0,0,0-.341-.339h-.038Z" transform="translate(1128.865 992.102) rotate(-30)" fill="#9ad5eb" fill-rule="evenodd"/><path d="M111.727,33.43h-.012a.376.376,0,0,0-.358.336c-.825,4.215-3.117,6.824-7.556,7.562a.376.376,0,0,0-.334.293h0c0,.011,0,.022-.006.034v.011c0,.008,0,.016,0,.024s0,.013,0,.019,0,.011,0,.016,0,.018,0,.027v.008a.376.376,0,0,0,.341.317c4.436.739,6.727,3.346,7.553,7.558h0a.376.376,0,0,0,.341.339h0l.024,0h.026a.376.376,0,0,0,.359-.336c.827-4.215,3.117-6.824,7.556-7.563h0a.376.376,0,0,0,.334-.292v0c0-.01,0-.021.006-.032v-.011c0-.008,0-.016,0-.025s0-.013,0-.019,0-.011,0-.016,0-.018,0-.027v-.008c0-.012,0-.023-.007-.035a.376.376,0,0,0-.334-.282c-4.436-.74-6.726-3.347-7.553-7.559a.376.376,0,0,0-.341-.339h-.038Z" transform="translate(1128.865 1432.102) rotate(-30)" fill="#9ad5eb" fill-rule="evenodd"/><path d="M111.727,33.43h-.012a.376.376,0,0,0-.358.336c-.825,4.215-3.117,6.824-7.556,7.562a.376.376,0,0,0-.334.293h0c0,.011,0,.022-.006.034v.011c0,.008,0,.016,0,.024s0,.013,0,.019,0,.011,0,.016,0,.018,0,.027v.008a.376.376,0,0,0,.341.317c4.436.739,6.727,3.346,7.553,7.558h0a.376.376,0,0,0,.341.339h0l.024,0h.026a.376.376,0,0,0,.359-.336c.827-4.215,3.117-6.824,7.556-7.563h0a.376.376,0,0,0,.334-.292v0c0-.01,0-.021.006-.032v-.011c0-.008,0-.016,0-.025s0-.013,0-.019,0-.011,0-.016,0-.018,0-.027v-.008c0-.012,0-.023-.007-.035a.376.376,0,0,0-.334-.282c-4.436-.74-6.726-3.347-7.553-7.559a.376.376,0,0,0-.341-.339h-.038Z" transform="translate(494.865 1169.102) rotate(-30)" fill="#9ad5eb" fill-rule="evenodd"/><path d="M10,2a8,8,0,1,0,8,8,8.009,8.009,0,0,0-8-8m0-2A10,10,0,1,1,0,10,10,10,0,0,1,10,0Z" transform="translate(1089 1113.721)" fill="#707070" opacity="0.3"/><path d="M521,1a528.351,528.351,0,0,0-53.168,2.685,521.3,521.3,0,0,0-51.631,7.88c-16.753,3.428-33.519,7.739-49.833,12.813-16.132,5.018-32.206,10.9-47.775,17.486-15.425,6.524-30.719,13.891-45.455,21.9-14.632,7.948-29.057,16.712-42.874,26.047-13.751,9.29-27.219,19.361-40.032,29.935-12.781,10.548-25.205,21.84-36.928,33.562s-23.014,24.147-33.562,36.928c-10.574,12.812-20.645,26.281-29.935,40.032-9.335,13.817-18.1,28.242-26.047,42.874-8.005,14.737-15.372,30.03-21.9,45.455-6.585,15.569-12.468,31.643-17.486,47.775C19.3,382.682,14.993,399.448,11.565,416.2a521.3,521.3,0,0,0-7.88,51.631,527.794,527.794,0,0,0,0,106.336,521.3,521.3,0,0,0,7.88,51.631c3.428,16.753,7.739,33.519,12.813,49.833,5.018,16.132,10.9,32.206,17.486,47.775,6.524,15.425,13.891,30.719,21.9,45.455,7.948,14.632,16.712,29.057,26.047,42.874,9.29,13.751,19.361,27.219,29.935,40.032,10.548,12.781,21.84,25.205,33.562,36.928s24.147,23.014,36.928,33.562c12.812,10.574,26.281,20.645,40.032,29.935,13.817,9.335,28.242,18.1,42.874,26.047,14.737,8.005,30.03,15.372,45.455,21.9,15.569,6.585,31.643,12.468,47.775,17.486,16.315,5.074,33.081,9.385,49.833,12.813a521.3,521.3,0,0,0,51.631,7.88,527.794,527.794,0,0,0,106.336,0,521.3,521.3,0,0,0,51.631-7.88c16.753-3.428,33.519-7.739,49.833-12.813,16.132-5.018,32.206-10.9,47.775-17.486,15.425-6.524,30.719-13.891,45.455-21.9,14.632-7.948,29.057-16.712,42.874-26.047,13.751-9.29,27.219-19.361,40.032-29.935,12.781-10.548,25.205-21.84,36.928-33.562s23.014-24.147,33.562-36.928c10.574-12.812,20.645-26.281,29.935-40.032,9.335-13.817,18.1-28.242,26.047-42.874,8.005-14.737,15.372-30.03,21.9-45.455,6.585-15.569,12.468-31.643,17.486-47.775,5.074-16.315,9.385-33.081,12.813-49.833a521.3,521.3,0,0,0,7.88-51.631,527.794,527.794,0,0,0,0-106.336,521.3,521.3,0,0,0-7.88-51.631c-3.428-16.753-7.739-33.519-12.813-49.833-5.018-16.132-10.9-32.206-17.486-47.775-6.524-15.425-13.891-30.719-21.9-45.455-7.948-14.632-16.712-29.057-26.047-42.874-9.29-13.751-19.361-27.219-29.935-40.032-10.548-12.781-21.84-25.205-33.562-36.928s-24.147-23.014-36.928-33.562c-12.812-10.574-26.281-20.645-40.032-29.935-13.817-9.335-28.242-18.1-42.874-26.047-14.737-8.005-30.03-15.372-45.455-21.9-15.569-6.585-31.643-12.468-47.775-17.486C659.318,19.3,642.552,14.993,625.8,11.565a521.3,521.3,0,0,0-51.631-7.88A528.348,528.348,0,0,0,521,1m0-1c287.74,0,521,233.26,521,521s-233.26,521-521,521S0,808.74,0,521,233.26,0,521,0Z" transform="translate(275 731.392)" fill="#ffffff1f"/><path d="M454.5,1a460.793,460.793,0,0,0-46.369,2.341A454.644,454.644,0,0,0,363.1,10.214c-14.61,2.99-29.232,6.749-43.46,11.175-14.069,4.376-28.087,9.507-41.665,15.25a454.828,454.828,0,0,0-241.34,241.34c-5.743,13.578-10.874,27.6-15.25,41.665-4.425,14.228-8.185,28.85-11.175,43.46a454.644,454.644,0,0,0-6.872,45.028,460.309,460.309,0,0,0,0,92.738A454.644,454.644,0,0,0,10.214,545.9c2.99,14.61,6.749,29.232,11.175,43.46,4.376,14.069,9.507,28.087,15.25,41.665a454.828,454.828,0,0,0,241.34,241.34c13.578,5.743,27.6,10.874,41.665,15.25,14.228,4.425,28.85,8.185,43.46,11.175a454.644,454.644,0,0,0,45.028,6.872,460.309,460.309,0,0,0,92.738,0,454.644,454.644,0,0,0,45.028-6.872c14.61-2.99,29.232-6.749,43.46-11.175,14.069-4.376,28.087-9.507,41.665-15.25a454.828,454.828,0,0,0,241.34-241.34c5.743-13.578,10.874-27.6,15.25-41.665,4.425-14.228,8.185-28.85,11.175-43.46a454.644,454.644,0,0,0,6.872-45.028,460.309,460.309,0,0,0,0-92.738,454.644,454.644,0,0,0-6.872-45.028c-2.99-14.61-6.749-29.232-11.175-43.46-4.376-14.069-9.507-28.087-15.25-41.665a454.828,454.828,0,0,0-241.34-241.34c-13.578-5.743-27.6-10.874-41.665-15.25-14.228-4.425-28.85-8.185-43.46-11.175a454.644,454.644,0,0,0-45.028-6.872A460.793,460.793,0,0,0,454.5,1m0-1C705.513,0,909,203.487,909,454.5S705.513,909,454.5,909,0,705.513,0,454.5,203.487,0,454.5,0Z" transform="translate(342 798.392)" fill="#ffffff1f"/><path d="M378.5,1a383.611,383.611,0,0,0-38.6,1.949A376.935,376.935,0,0,0,2.949,339.9a383.185,383.185,0,0,0,0,77.2A376.935,376.935,0,0,0,339.9,754.051a383.185,383.185,0,0,0,77.2,0A376.935,376.935,0,0,0,754.051,417.1a383.185,383.185,0,0,0,0-77.2A376.935,376.935,0,0,0,417.1,2.949,383.611,383.611,0,0,0,378.5,1m0-1C587.54,0,757,169.46,757,378.5S587.54,757,378.5,757,0,587.54,0,378.5,169.46,0,378.5,0Z" transform="translate(419 874.392)" fill="#ffffff1f"/><path d="M313,1a314.312,314.312,0,0,0-62.88,6.339A310.285,310.285,0,0,0,138.559,54.284,312.913,312.913,0,0,0,25.518,191.556,310.426,310.426,0,0,0,7.339,250.12a315.052,315.052,0,0,0,0,125.76A310.286,310.286,0,0,0,54.284,487.441a312.916,312.916,0,0,0,137.272,113.04,310.426,310.426,0,0,0,58.564,18.179,315.052,315.052,0,0,0,125.76,0,310.283,310.283,0,0,0,111.562-46.945,312.915,312.915,0,0,0,113.04-137.272,310.429,310.429,0,0,0,18.179-58.564,315.052,315.052,0,0,0,0-125.76,310.283,310.283,0,0,0-46.945-111.562A312.912,312.912,0,0,0,434.444,25.518,310.428,310.428,0,0,0,375.88,7.339,314.312,314.312,0,0,0,313,1m0-1C485.865,0,626,140.135,626,313S485.865,626,313,626,0,485.865,0,313,140.135,0,313,0Z" transform="translate(484 939.392)" fill="#ffffff1f"/></g></svg>