<svg xmlns="http://www.w3.org/2000/svg" width="47.82" height="62.763" viewBox="0 0 47.82 62.763">
  <path id="Icon_material-lock" data-name="Icon material-lock" d="M47.842,22.421H44.853V16.444a14.944,14.944,0,0,0-29.887,0v5.977H11.977A6,6,0,0,0,6,28.4V58.286a6,6,0,0,0,5.977,5.977H47.842a6,6,0,0,0,5.977-5.977V28.4A6,6,0,0,0,47.842,22.421ZM29.91,49.32a5.977,5.977,0,1,1,5.977-5.977A6,6,0,0,1,29.91,49.32Zm9.265-26.9H20.645V16.444a9.265,9.265,0,1,1,18.53,0Z" transform="translate(-6 -1.5)" fill="#ef9d5d"/>
</svg>
