<svg xmlns="http://www.w3.org/2000/svg" width="54" height="54.001" viewBox="0 0 54 54.001">
  <g id="Group_10676" data-name="Group 10676" transform="translate(-318.001 -645)">
    <path id="Path_11364" data-name="Path 11364" d="M203.38,89.344h54v8.7h-54Z" transform="translate(114.621 567.758)" fill="#ffdd98"/>
    <path id="Path_11365" data-name="Path 11365" d="M220.61,152.47h17.549v31.045H220.61Z" transform="translate(100.667 515.485)" fill="#ffdd98"/>
    <path id="Path_11366" data-name="Path 11366" d="M330.14,152.47h7.571v31.045H330.14Z" transform="translate(11.078 515.485)" fill="#ffdd98"/>
    <path id="Path_11367" data-name="Path 11367" d="M387.16,152.47h17.549v31.045H387.16Z" transform="translate(-35.99 515.485)" fill="#ffdd98"/>
    <path id="Path_11368" data-name="Path 11368" d="M304.594,32.769a5.811,5.811,0,0,0-8.8-7.54,16.659,16.659,0,0,0-2.179,2.971,1.741,1.741,0,0,1-3,0,16.123,16.123,0,0,0-2.179-2.971,5.811,5.811,0,0,0-8.8,7.54Z" transform="translate(52.88 621.478)" fill="#ffdd98"/>
  </g>
</svg>
