<svg xmlns="http://www.w3.org/2000/svg" width="54" height="53.999" viewBox="0 0 54 53.999">
  <g id="Group_10677" data-name="Group 10677" transform="translate(-225.999 -645)">
    <path id="Path_11355" data-name="Path 11355" d="M271.575,420.743a6.6,6.6,0,0,0-3.466-1.811,7.069,7.069,0,0,0-.737-.087h-.936a1.666,1.666,0,0,0-.581.069h-.147c-.234.052-.468.1-.7.173l-.173.061-.5.191-.242.113-.407.217-.234.164-.364.242-.13.1,9.159,9.194a6.586,6.586,0,0,0-.537-8.622Z" transform="translate(-18.991 267.027)" fill="#ffdd98"/>
    <path id="Path_11356" data-name="Path 11356" d="M238.522,446.586a2.454,2.454,0,0,0,0,.355,2.945,2.945,0,0,0,0,.4v.295a5.586,5.586,0,0,0,.086.65,6.543,6.543,0,0,0,10.451,4.064l-9.212-9.2-.121.165-.217.3-.182.32c-.061.1-.113.208-.165.312l-.156.338-.121.312c-.043.121-.087.243-.121.364s0,.147-.061.225a7.566,7.566,0,0,0-.147.771c-.017.113-.026.217-.035.329Z" transform="translate(2.96 245.283)" fill="#ffdd98"/>
    <path id="Path_11357" data-name="Path 11357" d="M373.14,138.74l3.579-1.256,6.049-6.057,4.272-4.263-2.322-2.314-10.312,10.312Z" transform="translate(-118.041 531.153)" fill="#ffdd98"/>
    <path id="Path_11358" data-name="Path 11358" d="M121.326,168.614a.786.786,0,0,1-.321.208l-4.8,1.69a1.116,1.116,0,0,1-.373.06h-.06a1.157,1.157,0,0,1-.338-.06l-.1-.043h0a1.277,1.277,0,0,1-.346-.234,1.213,1.213,0,0,1-.295-1.248l1.733-4.8h0a.923.923,0,0,1,.208-.329l4.983-5.043-3.319-.693-31.36,31.351a1.429,1.429,0,0,0,0,2.045l6.733,6.733h0a1.464,1.464,0,0,0,2.045,0l5.1-5.1h0a.542.542,0,0,0,0-.121v-1.135a7.276,7.276,0,0,1,.113-1.152v-.26a4.577,4.577,0,0,1,.13-.529c.043-.173.052-.217.087-.321l.165-.477c.052-.113.1-.234.147-.347s.13-.295.2-.442.13-.234.2-.355.147-.269.234-.407l.243-.338c.1-.13.182-.26.277-.381s.191-.208.286-.321.191-.225.295-.329a3.2,3.2,0,0,1,.277-.242l.363-.312a3.594,3.594,0,0,1,.295-.208,5.408,5.408,0,0,1,.45-.321l.286-.173c.165-.1.338-.191.5-.269l.286-.138.554-.217.277-.1.6-.165.26-.061h0a7.488,7.488,0,0,1,.771-.121h.1a8,8,0,0,1,.91,0h.13a3.376,3.376,0,0,1,.78.061h.069l16.984-16.984-.719-3.414Z" transform="translate(139.496 500.317)" fill="#ffdd98"/>
    <path id="Path_11359" data-name="Path 11359" d="M504.885,16.608,494.859,26.633l2.314,2.322L507.2,18.93a.494.494,0,0,0,0-.711l-1.586-1.612a.52.52,0,0,0-.728,0Z" transform="translate(-227.351 628.541)" fill="#ffdd98"/>
  </g>
</svg>
