<svg xmlns="http://www.w3.org/2000/svg" width="54" height="54" viewBox="0 0 54 54">
  <g id="Group_10679" data-name="Group 10679" transform="translate(-130 -645)">
    <path id="Path_11348" data-name="Path 11348" d="M385.01,341.25a8.758,8.758,0,1,0,8.758,8.758A8.768,8.768,0,0,0,385.01,341.25Zm3.687,10.141h-2.3v2.3a1.383,1.383,0,1,1-2.766,0v-2.3h-2.305a1.383,1.383,0,1,1,0-2.766h2.3V346.32a1.383,1.383,0,1,1,2.766,0v2.3h2.3a1.383,1.383,0,1,1,0,2.766Z" transform="translate(-215.298 340.234)" fill="#ffdd98"/>
    <path id="Path_11349" data-name="Path 11349" d="M304.119,118.52a10.6,10.6,0,1,1-10.6-10.6,10.6,10.6,0,0,1,10.6,10.6" transform="translate(-136.518 537.082)" fill="#ffdd98"/>
    <path id="Path_11350" data-name="Path 11350" d="M203.408,173.164a6.914,6.914,0,1,1-6.914-6.914,6.914,6.914,0,0,1,6.914,6.914" transform="translate(-57.734 487.88)" fill="#ffdd98"/>
    <path id="Path_11351" data-name="Path 11351" d="M436.748,173.164a6.914,6.914,0,1,1-6.914-6.914,6.914,6.914,0,0,1,6.914,6.914" transform="translate(-254.594 487.88)" fill="#ffdd98"/>
    <path id="Path_11352" data-name="Path 11352" d="M272.656,270.255a11.943,11.943,0,0,0-3.555-.535,11.644,11.644,0,0,0-11.453,9.219H242.264a4.213,4.213,0,0,1-4.136-4.978,18.311,18.311,0,0,1,34.527-3.706Z" transform="translate(-98.961 409.122)" fill="#ffdd98"/>
    <path id="Path_11353" data-name="Path 11353" d="M190.876,272.323a20.784,20.784,0,0,0-5.623,9.072H179.3a1.393,1.393,0,0,1-1.383-1.383,8.766,8.766,0,0,1,12.962-7.689Z" transform="translate(-47.914 399.332)" fill="#ffdd98"/>
    <path id="Path_11354" data-name="Path 11354" d="M453.026,280.011a1.393,1.393,0,0,1-1.383,1.383h-5.789l-1.088-2.433a20.582,20.582,0,0,0-4.7-6.638,8.675,8.675,0,0,1,4.2-1.07A8.766,8.766,0,0,1,453.026,280.011Z" transform="translate(-269.026 399.333)" fill="#ffdd98"/>
  </g>
</svg>
