<svg xmlns="http://www.w3.org/2000/svg" width="54" height="54" viewBox="0 0 54 54">
  <g id="Group_10678" data-name="Group 10678" transform="translate(-36 -645)">
    <path id="Path_11341" data-name="Path 11341" d="M279.425,200.122a9.3,9.3,0,1,1-9.3-9.3,9.3,9.3,0,0,1,9.3,9.3" transform="translate(-207.128 471.878)" fill="#ffdd98"/>
    <path id="Path_11342" data-name="Path 11342" d="M450.156,33.4a5.4,5.4,0,1,1-5.4-5.4,5.4,5.4,0,0,1,5.4,5.4" transform="translate(-366.322 617)" fill="#ffdd98"/>
    <path id="Path_11343" data-name="Path 11343" d="M408.381,136.25a7.7,7.7,0,0,1-9.991,0,11.467,11.467,0,0,0-5.214,4.268,11.635,11.635,0,0,1,6.645,7.416c1.53.123,2.867.152,3.568.152,2.312,0,11.562-.338,11.562-3.212,0-3.556-2.674-6.984-6.569-8.624Z" transform="translate(-324.952 520.439)" fill="#ffdd98"/>
    <path id="Path_11344" data-name="Path 11344" d="M167.936,315.616a5.4,5.4,0,1,1-5.4-5.4,5.4,5.4,0,0,1,5.4,5.4" transform="translate(-114.978 365.227)" fill="#ffdd98"/>
    <path id="Path_11345" data-name="Path 11345" d="M109.568,430.3c2.312,0,11.563-.34,11.563-3.211,0-3.561-2.672-6.987-6.567-8.628a7.7,7.7,0,0,1-9.991,0c-3.895,1.64-6.567,5.066-6.567,8.627,0,2.871,9.25,3.211,11.563,3.211Z" transform="translate(-62.005 268.7)" fill="#ffdd98"/>
    <path id="Path_11346" data-name="Path 11346" d="M404.215,315.391H395.6a.742.742,0,0,0-.741.741v2.605a.741.741,0,0,0,.741.741h8.611a7.3,7.3,0,0,0,7.3-7.3v-5.753h4.654a.294.294,0,0,0,.208-.5l-6.492-6.492a.584.584,0,0,0-.826,0l-6.492,6.492a.294.294,0,0,0,.208.5h4.653v5.753a3.211,3.211,0,0,1-3.211,3.211Z" transform="translate(-326.461 375.47)" fill="#ffdd98"/>
    <path id="Path_11347" data-name="Path 11347" d="M98.092,80.413l6.492,6.492a.584.584,0,0,0,.826,0l6.492-6.492a.294.294,0,0,0-.208-.5H107.04V74.159a3.211,3.211,0,0,1,3.212-3.211h8.61a.741.741,0,0,0,.741-.741V67.6a.741.741,0,0,0-.741-.741h-8.61a7.3,7.3,0,0,0-7.3,7.3v5.753H98.3a.294.294,0,0,0-.208.5Z" transform="translate(-62.006 582.192)" fill="#ffdd98"/>
  </g>
</svg>
