<svg xmlns="http://www.w3.org/2000/svg" width="54" height="49.847" viewBox="0 0 54 49.847">
  <g id="Group_10565" data-name="Group 10565" transform="translate(-12264.784 -48)">
    <path id="Path_11382" data-name="Path 11382" d="M210.3,168.807h-5.987a26.6,26.6,0,0,1,1.747-8.554h5.848c-.019.048-.028.1-.047.148q-.338.975-.6,1.986c-.03.112-.063.226-.091.34q-.262,1.026-.446,2.084c-.019.1-.034.208-.053.312-.117.714-.211,1.437-.276,2.169-.008.086-.012.172-.019.257q-.048.624-.072,1.259Zm1.105,9.051-.007-.019c-.16-.556-.3-1.122-.426-1.694-.032-.147-.065-.293-.1-.44-.119-.582-.227-1.167-.313-1.759,0,0,0-.008,0-.012-.083-.59-.142-1.189-.191-1.79-.012-.152-.022-.306-.032-.459-.017-.27-.03-.538-.04-.81h-5.984a26.551,26.551,0,0,0,1.733,8.553h5.864c-.181-.517-.355-1.037-.507-1.568Zm12.7,16.108-.367-.2c-.472-.269-.943-.546-1.4-.844-.017-.01-.03-.022-.045-.031-.444-.291-.876-.6-1.3-.924-.113-.085-.225-.172-.338-.258-.43-.336-.851-.681-1.261-1.044l-.043-.04q-.456-.408-.891-.836h-4.977a21.8,21.8,0,0,0,12.082,4.918c-.012-.005-.022-.012-.034-.017-.486-.224-.96-.467-1.43-.721Zm-8.348-7.3c-.089-.118-.177-.236-.261-.358-.323-.451-.639-.908-.934-1.38l-.032-.054c-.287-.462-.56-.937-.823-1.42-.069-.13-.14-.26-.208-.391-.261-.5-.515-1.008-.749-1.526-.007-.014-.01-.028-.017-.043h-5.783a24.882,24.882,0,0,0,4.332,6.225h5.3q-.423-.513-.822-1.053Zm3.141-37.172c.215-.2.431-.4.653-.6.247-.217.5-.431.752-.636.383-.311.776-.608,1.176-.894.237-.169.474-.334.715-.5q.672-.448,1.372-.85c.1-.055.189-.122.285-.177.13-.072.266-.131.4-.2.285-.153.578-.3.869-.439.146-.069.285-.152.434-.219a21.3,21.3,0,0,0-8.771,2.662,22.653,22.653,0,0,0-2.735,1.821h4.728a.883.883,0,0,1,.124.024Zm39.413,20.347c0,13.746-10.31,24.928-22.985,24.928s-22.976-11.183-22.976-24.928c0-.714.034-1.426.091-2.132.007-.076.008-.154.017-.231.059-.676.146-1.347.256-2.011.017-.1.03-.193.047-.288.113-.65.253-1.294.413-1.929.026-.107.055-.213.083-.319q.246-.93.557-1.832c.045-.125.091-.247.136-.37.209-.579.434-1.148.683-1.708.065-.147.138-.288.2-.433q.319-.685.681-1.348c.127-.236.259-.469.393-.7q.328-.56.683-1.1.265-.408.545-.8c.237-.331.481-.656.734-.975.2-.253.4-.5.612-.748.274-.321.555-.631.844-.935.211-.223.426-.445.644-.659.311-.3.627-.592.951-.875.208-.184.419-.365.634-.541.367-.3.744-.583,1.129-.858.2-.147.408-.289.615-.428q.632-.422,1.291-.8c.232-.133.462-.264.7-.388.07-.038.142-.074.213-.11.292-.151.586-.3.884-.435l.017-.007a21.8,21.8,0,0,1,3.138-1.154l.063-.019c.306-.085.617-.16.929-.233.1-.023.2-.047.294-.067.276-.06.551-.112.829-.16.151-.026.3-.05.45-.072.242-.036.486-.071.732-.1.217-.025.436-.043.657-.062.187-.017.375-.036.563-.048.419-.024.844-.039,1.267-.039,12.676,0,22.985,11.176,22.985,24.917Zm-5.072-7.156a1.036,1.036,0,0,0-.71,1.279c.182.63.336,1.276.458,1.918a1.037,1.037,0,0,0,1.019.842,1.058,1.058,0,0,0,.193-.019,1.033,1.033,0,0,0,.827-1.206c-.132-.707-.3-1.416-.5-2.111a1.039,1.039,0,0,0-1.285-.7Zm-3.152-4.092c.355.55.687,1.123.987,1.706a1.038,1.038,0,0,0,.925.562,1.035,1.035,0,0,0,.922-1.5,21.475,21.475,0,0,0-1.091-1.883,1.036,1.036,0,0,0-1.743,1.12Zm-15.841-9.36a1.07,1.07,0,0,0,1.079,1.034,16.9,16.9,0,0,1,1.956.114.982.982,0,0,0,.122.007,1.033,1.033,0,0,0,.119-2.059,18.952,18.952,0,0,0-2.2-.128h-.08a1,1,0,0,0-1,1.033Zm-6.086,1.472a1.036,1.036,0,0,0,.974.672,1.059,1.059,0,0,0,.361-.065,16.875,16.875,0,0,1,1.874-.574,1.034,1.034,0,1,0-.491-2.008,18.93,18.93,0,0,0-2.106.644A1.034,1.034,0,0,0,228.164,150.7Zm-9.071,8.272a1.045,1.045,0,0,0,1.436-.314,19.655,19.655,0,0,1,1.147-1.6,1.036,1.036,0,0,0-1.628-1.281,21.313,21.313,0,0,0-1.269,1.772A1.033,1.033,0,0,0,219.092,158.975Zm-2.27,5.779a1.055,1.055,0,0,0,.283.039,1.035,1.035,0,0,0,1-.752c.179-.625.391-1.255.632-1.871a1.037,1.037,0,0,0-1.934-.752c-.266.677-.5,1.369-.7,2.058a1.035,1.035,0,0,0,.717,1.278Zm-.56,6.148a1.063,1.063,0,0,0,1.038-1.066c0-.636.028-1.279.085-1.914a1.034,1.034,0,0,0-.943-1.12,1.046,1.046,0,0,0-1.125.938c-.062.694-.093,1.4-.093,2.1v.065a1.008,1.008,0,0,0,1.037,1Zm1.168,6.127a1.036,1.036,0,0,0,.71-1.28c-.185-.629-.34-1.275-.462-1.918a1.038,1.038,0,0,0-2.039.386c.136.708.306,1.418.507,2.109a1.037,1.037,0,0,0,1,.746,1.1,1.1,0,0,0,.287-.042Zm3.162,4.084a19.66,19.66,0,0,1-.989-1.7,1.037,1.037,0,0,0-1.847.944,21.576,21.576,0,0,0,1.095,1.883,1.036,1.036,0,0,0,1.741-1.124Zm3.925,4.386a18.935,18.935,0,0,1-1.455-1.322,1.042,1.042,0,0,0-1.467-.01,1.031,1.031,0,0,0-.01,1.461,20.587,20.587,0,0,0,1.62,1.471,1.042,1.042,0,0,0,1.461-.146A1.032,1.032,0,0,0,224.518,185.5ZM226.3,151.65a1.043,1.043,0,0,0-1.438-.293,20.332,20.332,0,0,0-1.764,1.3,1.035,1.035,0,0,0,1.325,1.591,18.167,18.167,0,0,1,1.58-1.168,1.03,1.03,0,0,0,.3-1.433Zm3.309,36.755a16.912,16.912,0,0,1-1.8-.774,1.034,1.034,0,1,0-.935,1.844,18.985,18.985,0,0,0,2.021.871,1.038,1.038,0,0,0,1.329-.616,1.03,1.03,0,0,0-.617-1.325Zm6.778,2.039a1.054,1.054,0,0,0-1.06-1.034,16.805,16.805,0,0,1-1.914-.109,1.033,1.033,0,1,0-.237,2.052,18.944,18.944,0,0,0,2.15.123h.045a1.016,1.016,0,0,0,1.016-1.033Zm6.072-1.458a1.035,1.035,0,0,0-1.334-.61,16.777,16.777,0,0,1-1.874.569,1.033,1.033,0,0,0,.244,2.037,1.058,1.058,0,0,0,.245-.029,18.852,18.852,0,0,0,2.106-.639,1.033,1.033,0,0,0,.613-1.329Zm-.033-16.094a1.039,1.039,0,0,0-1.364.538,6.567,6.567,0,0,1-5.887,4.262c-3.649,0-6.616-3.515-6.616-7.837s2.968-7.837,6.616-7.837a6.284,6.284,0,0,1,5.237,3.05,1.036,1.036,0,0,0,1.74-1.127,8.948,8.948,0,0,0-3.62-3.2.908.908,0,0,0,.036-.182v-3.269a1.038,1.038,0,0,0-2.076,0v2.792a7.577,7.577,0,0,0-1.316-.13,7.758,7.758,0,0,0-1.113.09v-2.752a1.038,1.038,0,0,0-2.076,0v3.075a.957.957,0,0,0,.055.264,10.441,10.441,0,0,0-.033,18.44c0,.029-.017.054-.017.083v3.555a1.038,1.038,0,0,0,2.076,0v-3.038a7.482,7.482,0,0,0,1.106.09,7.812,7.812,0,0,0,1.321-.12v3.069a1.038,1.038,0,0,0,2.076,0v-3.555a1.156,1.156,0,0,0-.032-.167,9.208,9.208,0,0,0,4.428-4.734,1.034,1.034,0,0,0-.542-1.359Zm1.853-21.29a1.03,1.03,0,0,0-.458-1.387,19.251,19.251,0,0,0-2.018-.872,1.033,1.033,0,1,0-.713,1.939,17.672,17.672,0,0,1,1.8.777,1.039,1.039,0,0,0,1.391-.457Zm3.385,33.986a1.041,1.041,0,0,0-1.459-.138,18.475,18.475,0,0,1-1.583,1.165,1.033,1.033,0,0,0,.57,1.9,1.041,1.041,0,0,0,.57-.169,20.425,20.425,0,0,0,1.766-1.3A1.029,1.029,0,0,0,247.665,185.588Zm.7-29.755a1.033,1.033,0,0,0,.74-1.757,20.492,20.492,0,0,0-1.616-1.472,1.035,1.035,0,0,0-1.318,1.6,18.657,18.657,0,0,1,1.453,1.325A1.039,1.039,0,0,0,248.366,155.833Zm3.179,24.9a1.037,1.037,0,0,0-1.433.312c-.357.553-.744,1.093-1.149,1.6a1.035,1.035,0,0,0,1.623,1.286,21.411,21.411,0,0,0,1.273-1.771A1.033,1.033,0,0,0,251.545,180.734Zm2.285-5.774a1.034,1.034,0,0,0-1.283.708c-.182.63-.4,1.261-.636,1.871a1.033,1.033,0,0,0,.587,1.339,1.008,1.008,0,0,0,.379.071,1.037,1.037,0,0,0,.965-.656c.266-.672.5-1.363.7-2.056a1.033,1.033,0,0,0-.711-1.278Zm1.508-2.984c.065-.7.1-1.425.1-2.141l0-.092a1.038,1.038,0,0,0-2.074.069v.079c0,.634-.03,1.272-.089,1.9a1.036,1.036,0,0,0,.94,1.123c.03,0,.063,0,.1,0a1.033,1.033,0,0,0,1.032-.939ZM212.744,158.17c.072-.161.151-.319.227-.477.223-.475.458-.941.708-1.4.151-.279.306-.554.464-.827.225-.382.458-.758.7-1.128.209-.321.424-.636.647-.948q.358-.5.738-.982c.122-.154.23-.321.355-.474.111-.134.235-.252.347-.384a.1.1,0,0,0,.015-.017h-5.283q-.809.812-1.553,1.71a25.094,25.094,0,0,0-3.146,4.94h5.774l.006-.014Z" transform="translate(12060.469 -96.921)" fill="#ffdd98"/>
  </g>
</svg>
