<svg xmlns="http://www.w3.org/2000/svg" width="54" height="54" viewBox="0 0 54 54">
  <g id="Group_10564" data-name="Group 10564" transform="translate(-12173 -294)">
    <path id="Path_11379" data-name="Path 11379" d="M109.034,335.853l-6.358,6.358a1.886,1.886,0,0,0,0,2.665L107.9,350.1a1.882,1.882,0,0,0,2.665,0l6.358-6.358,2.152,2.152a1.884,1.884,0,0,0,3.213-1.208l.871-13.063a1.884,1.884,0,0,0-2.007-2.005l-13.06.871a1.884,1.884,0,0,0-1.208,3.213l2.15,2.15Z" transform="translate(12070.875 -2.654)" fill="#ffdd98" fill-rule="evenodd"/>
    <path id="Path_11380" data-name="Path 11380" d="M249.649,32.11v9.422h13.662c.075,0,.151,0,.226.008l-4.194-8.387a1.881,1.881,0,0,0-1.685-1.042H249.65Zm-10.364,0h-8.009a1.882,1.882,0,0,0-1.685,1.042L225.4,41.539c.075,0,.151-.008.226-.008h13.662V32.109Zm6.6,9.422h-2.827V32.11h2.827Z" transform="translate(11961.805 261.891)" fill="#ffdd98" fill-rule="evenodd"/>
    <path id="Path_11381" data-name="Path 11381" d="M209.995,157.042l7.287-.5a3.7,3.7,0,0,1,2.915,1.128,3.954,3.954,0,0,1,1.1,3l-.486,7.511h28.76a1.914,1.914,0,0,0,1.884-1.942V139.051a1.915,1.915,0,0,0-1.884-1.942H235.905v10.682a1.914,1.914,0,0,1-1.884,1.942h-6.6a1.914,1.914,0,0,1-1.884-1.942V137.108H211.879a1.915,1.915,0,0,0-1.884,1.942Zm7.034,11.138.5-7.765-7.534.519a1.972,1.972,0,0,0,.594,1.29,1.845,1.845,0,0,0,1.413.519l3.5-.241-.234,3.613a1.984,1.984,0,0,0,.505,1.457,1.868,1.868,0,0,0,1.249.61Zm15.107-31.071v8.74H229.31v-8.74Z" transform="translate(11975.548 168.198)" fill="#ffdd98" fill-rule="evenodd"/>
  </g>
</svg>
