<svg xmlns="http://www.w3.org/2000/svg" width="70.058" height="86" viewBox="0 0 70.058 86">
  <g id="noun-shield-668482" transform="translate(-14.5 -8.467)">
    <g id="Group_10832" data-name="Group 10832" transform="translate(14.5 8.467)">
      <path id="Path_27026" data-name="Path 27026" d="M84.553,25.315l-1.618.293a13.073,13.073,0,0,1-2.074.133c-4.548,0-16.609-1.58-30.33-16.207l-1-1.067-1,1.067C34.807,24.161,22.746,25.741,18.2,25.741a13.175,13.175,0,0,1-2.067-.132L14.5,25.3V26.96c0,36.844,25.434,67.507,35.029,67.507S84.558,63.8,84.558,26.96Zm-35.024,66.4c-7.564,0-31.573-29.014-32.267-63.249.279.012.591.021.934.021,4.793,0,17.282-1.587,31.332-16.025C63.581,26.9,76.069,28.49,80.862,28.49c.345,0,.657-.008.935-.021C81.1,62.7,57.093,91.718,49.529,91.718Z" transform="translate(-14.5 -8.467)" fill="#ffd675"/>
      <path id="Path_27027" data-name="Path 27027" d="M17.844,28.361A86.781,86.781,0,0,0,21.836,50H48.279V13.25C32.825,29.391,17.844,28.361,17.844,28.361Z" transform="translate(-13.25 -6.68)" fill="#ffd675"/>
      <path id="Path_27028" data-name="Path 27028" d="M40,77.776c6.469,0,21.406-21.005,26.4-37.776H40Z" transform="translate(-4.971 3.317)" fill="#ffd675"/>
    </g>
  </g>
</svg>
