<svg xmlns="http://www.w3.org/2000/svg" width="86.359" height="86.001" viewBox="0 0 86.359 86.001">
  <g id="noun-coin-6528728" transform="translate(-15 -14.667)">
    <g id="Group_10833" data-name="Group 10833" transform="translate(15 14.667)">
      <path id="Path_27041" data-name="Path 27041" d="M47.185,46.307c-.307,0-.614.011-.921.023a22.246,22.246,0,0,0-8.206,1.909,22.535,22.535,0,1,0,29.73,29.73A22.271,22.271,0,0,0,69.7,69.764c.012-.307.023-.614.023-.921A22.539,22.539,0,0,0,47.185,46.307ZM34.56,70.17a1.862,1.862,0,0,1-1.3.54,1.84,1.84,0,0,1-1.3-.54,1.862,1.862,0,0,1-.54-1.3,1.84,1.84,0,0,1,.54-1.3,1.913,1.913,0,0,1,2.6-.012,1.891,1.891,0,0,1,.54,1.314A1.862,1.862,0,0,1,34.56,70.17ZM45.881,53.643a1.9,1.9,0,0,1,2.6,0,1.819,1.819,0,0,1,.54,1.3,1.845,1.845,0,0,1-1.842,1.842,1.84,1.84,0,0,1-1.3-.54,1.862,1.862,0,0,1-.54-1.3A1.84,1.84,0,0,1,45.881,53.643Zm2.6,30.451a1.842,1.842,0,0,1-3.143-1.3,1.84,1.84,0,0,1,.54-1.3,1.9,1.9,0,0,1,2.6,0,1.84,1.84,0,0,1,.54,1.3A1.862,1.862,0,0,1,48.484,84.094Zm6.448-11.015A3.518,3.518,0,0,1,51.414,76.6H42.947a3.518,3.518,0,0,1-3.518-3.518V64.613A3.518,3.518,0,0,1,42.947,61.1h8.466a3.518,3.518,0,0,1,3.518,3.518Zm7.475-2.909a1.859,1.859,0,0,1-1.3.54,1.84,1.84,0,0,1-1.3-.54,1.862,1.862,0,0,1-.54-1.3,1.84,1.84,0,0,1,.54-1.3,1.835,1.835,0,0,1,3.142,1.3A1.845,1.845,0,0,1,62.407,70.17ZM101.36,47.25a32.571,32.571,0,0,0-63.671-9.692A32.283,32.283,0,1,0,77.929,78.51,32.61,32.61,0,0,0,101.36,47.25ZM47.283,96.984a28.6,28.6,0,0,1-8.27-55.975,1.857,1.857,0,0,0,.58-.052,28.712,28.712,0,0,1,7.593-1.014,7.515,7.515,0,0,1,.8.025c.044,0,.088.007.133.009A28.466,28.466,0,0,1,60.43,43.169a1.837,1.837,0,0,0,.683.194A28.783,28.783,0,0,1,72.976,55.839c.052.1.1.206.15.309A28.588,28.588,0,0,1,47.283,96.984ZM73.266,41.341a1.421,1.421,0,0,1,1.419,1.419v8.586A32.527,32.527,0,0,0,64.88,41.341Zm-6.339-7.995a1.844,1.844,0,0,1,.539-1.3,1.9,1.9,0,0,1,2.6,0,1.838,1.838,0,0,1,0,2.6,1.84,1.84,0,0,1-1.3.54,1.84,1.84,0,0,1-1.841-1.842ZM79.333,74.166a32.741,32.741,0,0,0,.435-5.324c0-.219-.015-.436-.022-.654A23.618,23.618,0,1,0,47.933,36.119c-.217,0-.432-.017-.65-.017a32.417,32.417,0,0,0-5.361.453A28.9,28.9,0,1,1,79.333,74.166Zm1.53-26.9a1.836,1.836,0,0,1,3.145-1.3,1.846,1.846,0,0,1-2.618,2.6A1.886,1.886,0,0,1,80.863,47.271Z" transform="translate(-15 -14.667)" fill="#ffd675"/>
    </g>
  </g>
</svg>
