<svg xmlns="http://www.w3.org/2000/svg" width="86" height="86" viewBox="0 0 86 86">
  <g id="noun-spin-342741" transform="translate(-5 -5)">
    <path id="Path_27029" data-name="Path 27029" d="M70.514,39.229A25.606,25.606,0,0,0,50,49.521a22.749,22.749,0,0,1,29.436-5.805,23.422,23.422,0,0,1,9.456,10.542,2.138,2.138,0,0,0,3.009.8,2.2,2.2,0,0,0,.8-3.009A25.618,25.618,0,0,0,70.514,39.229Z" transform="translate(-2 -1.521)" fill="#ffd675"/>
    <path id="Path_27030" data-name="Path 27030" d="M47.459,72.912A25.606,25.606,0,0,0,48.8,50a22.749,22.749,0,0,1-9.69,28.395,23.422,23.422,0,0,1-13.857,2.918,2.138,2.138,0,0,0-2.2,2.206,2.2,2.2,0,0,0,2.206,2.2,25.617,25.617,0,0,0,22.2-12.8Z" transform="translate(-0.802 -2)" fill="#ffd675"/>
    <path id="Path_27031" data-name="Path 27031" d="M29.778,35.55A25.606,25.606,0,0,0,48.949,48.17,22.749,22.749,0,0,1,29.2,25.58a23.422,23.422,0,0,1,4.4-13.46,2.138,2.138,0,0,0-.811-3.007,2.2,2.2,0,0,0-3.007.811,25.618,25.618,0,0,0-.01,25.626Z" transform="translate(-0.949 -0.17)" fill="#ffd675"/>
    <path id="Path_27032" data-name="Path 27032" d="M51.247,25.427A25.606,25.606,0,0,0,49.9,48.339a22.749,22.749,0,0,1,9.69-28.395,23.422,23.422,0,0,1,13.857-2.918,2.138,2.138,0,0,0,2.2-2.206,2.2,2.2,0,0,0-2.206-2.2A25.618,25.618,0,0,0,51.247,25.427Z" transform="translate(-1.903 -0.339)" fill="#ffd675"/>
    <path id="Path_27033" data-name="Path 27033" d="M69.171,62.619A25.606,25.606,0,0,0,50,50,22.749,22.749,0,0,1,69.745,72.589a23.422,23.422,0,0,1-4.4,13.46,2.138,2.138,0,0,0,.811,3.007,2.2,2.2,0,0,0,3.007-.811,25.618,25.618,0,0,0,.01-25.626Z" transform="translate(-2 -2)" fill="#ffd675"/>
    <path id="Path_27034" data-name="Path 27034" d="M27.486,60.021A25.606,25.606,0,0,0,48,49.728a22.749,22.749,0,0,1-29.436,5.805A23.422,23.422,0,0,1,9.109,44.991a2.138,2.138,0,0,0-3.009-.8A2.2,2.2,0,0,0,5.3,47.2,25.618,25.618,0,0,0,27.486,60.021Z" transform="translate(0 -1.728)" fill="#ffd675"/>
    <path id="Path_27035" data-name="Path 27035" d="M62.619,29.778A25.606,25.606,0,0,0,50,48.949,22.749,22.749,0,0,1,72.589,29.2a23.422,23.422,0,0,1,13.46,4.4,2.138,2.138,0,0,0,3.007-.811,2.2,2.2,0,0,0-.811-3.007,25.618,25.618,0,0,0-25.626-.01Z" transform="translate(-2 -0.949)" fill="#ffd675"/>
    <path id="Path_27036" data-name="Path 27036" d="M60.021,70.514A25.606,25.606,0,0,0,49.728,50a22.749,22.749,0,0,1,5.805,29.436,23.422,23.422,0,0,1-10.542,9.456,2.138,2.138,0,0,0-.8,3.009,2.2,2.2,0,0,0,3.009.8A25.617,25.617,0,0,0,60.021,70.514Z" transform="translate(-1.728 -2)" fill="#ffd675"/>
    <path id="Path_27037" data-name="Path 27037" d="M25.427,47.459A25.606,25.606,0,0,0,48.339,48.8a22.749,22.749,0,0,1-28.395-9.69,23.422,23.422,0,0,1-2.918-13.857,2.138,2.138,0,0,0-2.206-2.2,2.2,2.2,0,0,0-2.2,2.206,25.618,25.618,0,0,0,12.8,22.2Z" transform="translate(-0.339 -0.802)" fill="#ffd675"/>
    <path id="Path_27038" data-name="Path 27038" d="M39.229,27.486A25.606,25.606,0,0,0,49.521,48a22.749,22.749,0,0,1-5.805-29.436A23.422,23.422,0,0,1,54.258,9.109a2.138,2.138,0,0,0,.8-3.009,2.2,2.2,0,0,0-3.009-.8A25.618,25.618,0,0,0,39.229,27.486Z" transform="translate(-1.521)" fill="#ffd675"/>
    <path id="Path_27039" data-name="Path 27039" d="M35.55,69.171A25.606,25.606,0,0,0,48.17,50,22.749,22.749,0,0,1,25.58,69.745a23.422,23.422,0,0,1-13.46-4.4,2.138,2.138,0,0,0-3.007.811,2.2,2.2,0,0,0,.811,3.007A25.617,25.617,0,0,0,35.55,69.171Z" transform="translate(-0.17 -2)" fill="#ffd675"/>
    <path id="Path_27040" data-name="Path 27040" d="M72.912,51.247A25.606,25.606,0,0,0,50,49.9a22.749,22.749,0,0,1,28.395,9.69,23.422,23.422,0,0,1,2.918,13.857,2.138,2.138,0,0,0,2.206,2.2,2.2,2.2,0,0,0,2.2-2.206A25.618,25.618,0,0,0,72.912,51.247Z" transform="translate(-2 -1.903)" fill="#ffd675"/>
  </g>
</svg>
