<svg xmlns="http://www.w3.org/2000/svg" width="127.737" height="177.721" viewBox="0 0 127.737 177.721">
  <g id="noun-lightning-1879064" transform="translate(-18)">
    <path id="Path_27021" data-name="Path 27021" d="M128.487,62.681H99.434L128.845,5.024C130.26,2.249,128.889,0,125.786,0H92.9a8.68,8.68,0,0,0-7.578,5.291L57.264,81.069c-1.071,2.894.527,5.21,3.575,5.21h.087L87.275,85.9,54.542,175.317c-.582,1.59-.681,2.4-.365,2.4.265,0,.822-.574,1.63-1.743l75.1-108.66C132.672,64.757,131.59,62.681,128.487,62.681Zm.131,3.058L91.27,83.061l-4.035.058-26.4.383a1.324,1.324,0,0,1-1.043-.314,1.405,1.405,0,0,1,.072-1.155L87.922,6.254A5.966,5.966,0,0,1,92.9,2.777h32.89a1.877,1.877,0,0,1,.841.148,1.9,1.9,0,0,1-.255.837L96.96,61.42,94.9,65.458h33.587c.112,0,.213,0,.3.012C128.742,65.551,128.686,65.641,128.618,65.739Z" transform="translate(13.984 0)" fill="#ffd675"/>
    <path id="Path_27022" data-name="Path 27022" d="M100.158,9.777a1.388,1.388,0,0,0,0-2.777H88.643a1.389,1.389,0,0,0-1.3.911L71.084,52.341a1.389,1.389,0,1,0,2.609.955L89.614,9.777Z" transform="translate(20.587 2.719)" fill="#ffd675"/>
    <circle id="Ellipse_34" data-name="Ellipse 34" cx="1.5" cy="1.5" r="1.5" transform="translate(89.868 59.861)" fill="#ffd675"/>
    <circle id="Ellipse_35" data-name="Ellipse 35" cx="1.5" cy="1.5" r="1.5" transform="translate(32.868 100.861)" fill="#ffd675"/>
    <path id="Path_27023" data-name="Path 27023" d="M65.884,87.176H48.595L66.114,51.14c.91-1.734.028-3.14-1.967-3.14H43a5.578,5.578,0,0,0-4.872,3.307L20.1,98.669a2.253,2.253,0,0,0,2.3,3.256h.056l16.939-.239L18.348,157.573c-.374.994-.437,1.5-.235,1.5.17,0,.528-.359,1.047-1.09L67.437,90.074C68.575,88.473,67.88,87.176,65.884,87.176ZM39.351,98.909l-16.462.232L40.728,52.3A2.847,2.847,0,0,1,43,50.777H63.2L46.1,85.962l-1.94,3.991h19.96Z" transform="translate(0 18.645)" fill="#ffd675"/>
    <path id="Path_27024" data-name="Path 27024" d="M44.385,55.777a1.388,1.388,0,0,0,0-2.777H40.2a1.388,1.388,0,0,0-1.3.9L30.588,76.117A1.388,1.388,0,0,0,31.4,77.9a1.372,1.372,0,0,0,.486.089,1.389,1.389,0,0,0,1.3-.9l7.972-21.313Z" transform="translate(4.855 20.588)" fill="#ffd675"/>
  </g>
</svg>
