<svg xmlns="http://www.w3.org/2000/svg" width="134" height="173" viewBox="0 0 134 173">
  <g id="Group_10836" data-name="Group 10836" transform="translate(-1146 -1315)">
    <g id="Group_10835" data-name="Group 10835" transform="translate(1159.994 1315)">
      <g id="noun-world-building-game-5891051">
        <path id="Path_27042" data-name="Path 27042" d="M7,119.195a9.169,9.169,0,0,0,9.169,9.169h2.292a9.169,9.169,0,0,0,9.169,9.169H91.812a9.169,9.169,0,0,0,9.169-9.169h2.292a9.169,9.169,0,0,0,9.169-9.169v-87.1a9.169,9.169,0,0,0-9.169-9.169H100.98V9.169A9.169,9.169,0,0,0,91.812,0H27.63a9.169,9.169,0,0,0-9.169,9.169V22.922H16.169A9.169,9.169,0,0,0,7,32.091Zm4.584-87.1a4.584,4.584,0,0,1,4.584-4.584h87.1a4.584,4.584,0,0,1,4.584,4.584v87.1a4.584,4.584,0,0,1-4.584,4.584h-87.1a4.584,4.584,0,0,1-4.584-4.584Z" transform="translate(-7)" fill="#ffd675"/>
        <path id="Path_27044" data-name="Path 27044" d="M24.169,49.208a4.525,4.525,0,0,0,2.1-.518,100.007,100.007,0,0,1,20.689-7.858L58.825,89.8a4.584,4.584,0,0,0,5.536,3.374l4.456-1.08a4.584,4.584,0,0,0,3.374-5.536L60.319,37.589A97.8,97.8,0,0,1,82.308,35.1,4.584,4.584,0,0,0,86.6,32.01,4.419,4.419,0,0,0,84.9,27.026c-5.52-3.839-14.842-7.69-28.355-5.011L55.448,17.5a4.584,4.584,0,0,0-5.54-3.374l-4.456,1.08a4.584,4.584,0,0,0-3.376,5.533l1.1,4.513C29.931,29.062,23.41,36.754,20.26,42.7a4.426,4.426,0,0,0,3.9,6.512Zm39.11,39.518L51.4,39.714l4.456-1.08,11.883,49.01ZM50.994,18.584l1.082,4.456-4.458,1.082-1.08-4.456ZM46.376,29.128l.092-.021h0l8.912-2.162h0l.085-.021a41.429,41.429,0,0,1,9.779-1.235A29.425,29.425,0,0,1,81.875,30.5a105.1,105.1,0,0,0-24.779,3.1L48,35.812A105.643,105.643,0,0,0,24.549,44.4c2.968-5.352,9.141-12.19,21.826-15.275Z" transform="translate(9.46 18.091)" fill="#ffd675"/>
      </g>
      <g id="Group_10834" data-name="Group 10834" transform="translate(7.225 70.463)">
        <path id="Path_27045" data-name="Path 27045" d="M35.4,55.639A20.243,20.243,0,1,1,55.639,35.4,20.267,20.267,0,0,1,35.4,55.639Zm0-38.744A18.5,18.5,0,1,0,53.9,35.4,18.522,18.522,0,0,0,35.4,16.895Zm0,3.23A15.271,15.271,0,1,0,50.666,35.4,15.271,15.271,0,0,0,35.4,20.125Zm-.616,5.9a.9.9,0,0,1,1.232,0,.86.86,0,0,1,.256.616.871.871,0,0,1-1.743,0A.87.87,0,0,1,34.78,26.02Zm-7.54,10a.881.881,0,0,1-.616.256.86.86,0,0,1-.616-.256.87.87,0,0,1-.256-.616.868.868,0,0,1,1.487-.616.881.881,0,0,1,.256.616A.87.87,0,0,1,27.24,36.023ZM36.011,44.8a.871.871,0,0,1-1.487-.616.884.884,0,0,1,.256-.622.911.911,0,0,1,1.232,0,.876.876,0,0,1,0,1.237Zm4.267-6.186a1.665,1.665,0,0,1-1.664,1.664H32.176a1.665,1.665,0,0,1-1.664-1.664V32.176a1.665,1.665,0,0,1,1.664-1.664h6.438a1.665,1.665,0,0,1,1.664,1.664v6.439Zm4.5-2.592a.87.87,0,0,1-.616.256.871.871,0,0,1-.616-1.487.9.9,0,0,1,1.232,0,.87.87,0,0,1,0,1.232Z" transform="translate(-15.152 -15.152)" fill="#ffd675"/>
      </g>
    </g>
    <path id="Polygon_1" data-name="Polygon 1" d="M64.737,1.148a5,5,0,0,1,4.525,0l46.1,23.393A5,5,0,0,1,113.1,34H20.9a5,5,0,0,1-2.263-9.459Z" transform="translate(1280 1488) rotate(180)" fill="#ffd675"/>
  </g>
</svg>
