<svg xmlns="http://www.w3.org/2000/svg" width="60.486" height="64" viewBox="0 0 60.486 64">
  <g id="noun-tornado-2224651" transform="translate(-1.285 0.032)">
    <path id="Path_53" data-name="Path 53" d="M51,1.343A43.184,43.184,0,0,0,39.013.011c-.44,0-2.971-.213-3.224.306s1.905.866,2.425,1.026A69.83,69.83,0,0,1,47.54,4.075c2.412.919,8.488,3.051,8.927,6.116.24,1.679-2.532,3.9-4,3.917s-3.344-1.239-4.717-1.546a35.976,35.976,0,0,0-5.729-.786c-1.506-.08-5.023-.626-6.356.133-.986.56,0,.64.746.853A92.215,92.215,0,0,1,46.581,16,68.62,68.62,0,0,1,14.6,15.867a45.541,45.541,0,0,1,4.5-2.025c.6-.227,2.079-.466,1.492-1.159-.746-.893-6.329.68-7.462,1-1.332.373-2.119.933-3.411.493a7.608,7.608,0,0,1-4-3.438c.933-4.57,7.422-6.849,11.406-8.328.52-.2,2.665-.6,1.879-1.332-.386-.346-3.078.227-3.478.28A23.77,23.77,0,0,0,4.9,4.967C1.132,7.592.053,11.736,2.891,15.454c.546.72,2.771,2.185,2.865,2.838a13.324,13.324,0,0,1-.72,1.772c-.653,2.891,1.106,5.476,3.251,7.222.613.48,1.945,1.066,1.945,1.612,0,.187-.333.64-.373.866a6.222,6.222,0,0,0,0,2.931c1.173,4.25,6.462,6.316,10.246,7.408,0,2.278,0,3.837,2.012,5.556a13.857,13.857,0,0,0,4,2.238c1.546.573,1.119.546,1.905,1.759.626.959,1.652,1.2,2.4,1.905s.759,1.452,1.159,2.572a16.615,16.615,0,0,0,7.208,8.248c.52.32,2.985,2.052,3.371,1.466s-.919-3.824-.933-4.743c-.067-2.931.68-6.262,2.731-8.261a7.582,7.582,0,0,0,1.679-2.971c.693-1.439,3.158-2.2,4.157-4a4.743,4.743,0,0,0-1.106-6.156c2.4-1.426,4.717-3.771,4.6-6.755,0-.759-.613-1.879-.386-2.372s1.812-1.266,2.332-1.732a9.327,9.327,0,0,0,2.238-2.865,6.356,6.356,0,0,0,.4-4.53c-.44-1.479-.36-1.332.8-2.358a10.659,10.659,0,0,0,2.2-2.731,7.5,7.5,0,0,0,.906-3.544C61.824,5.341,55.455,2.582,51,1.343ZM9.46,20.277A47.128,47.128,0,0,0,24.7,24.141a69.152,69.152,0,0,0,7.049.346,22.132,22.132,0,0,1,8.488,1.506A65.6,65.6,0,0,1,20.4,25.86c.346-.16,2.585-.813,2.558-1.332s-2.305-.213-2.385-.2c-2.665.16-4.25.906-6.849-.133C12.284,23.608,8.727,22.289,9.46,20.277ZM44.875,40.916c-3.158,1.732-7.435,1.732-10.9,1.732-3.025,0-6.556-.093-9.327-1.532a47.088,47.088,0,0,0,14.217,0c1.332-.227,3.438-1.252,4.717-1.093C43.809,39.984,45.075,40.783,44.875,40.916Zm-7.182-6.5a55.708,55.708,0,0,1-9.66.36c-1.173,0-14.883-1.159-13.831-4.25,10.659,4,23.024,3.757,33.684.48-2.092,2.572-7.235,3.038-10.246,3.411Zm11.3-10.659c-2.212.946-3.691.08-6-.227a49.926,49.926,0,0,0,5.21-1.186c.653-.187,4.53-1.332,4.53-1.426-.52,1.492-2.532,2.305-3.8,2.865Z" transform="translate(0 0)" fill="#7a7a7c"/>
  </g>
</svg>
